<svg width="508" height="258" viewBox="0 0 508 258" fill="none" xmlns="http://www.w3.org/2000/svg">
<g clip-path="url(#clip0_2184_11648)">
<g clip-path="url(#clip1_2184_11648)">
<path opacity="0.15" d="M254 338C276.091 338 294 320.091 294 298C294 275.909 276.091 258 254 258C231.909 258 214 275.909 214 298C214 320.091 231.909 338 254 338Z" stroke="#3F68FF" stroke-width="2"/>
<path opacity="0.15" d="M254 360C288.242 360 316 332.242 316 298C316 263.758 288.242 236 254 236C219.758 236 192 263.758 192 298C192 332.242 219.758 360 254 360Z" stroke="#3F68FF" stroke-width="2"/>
<path opacity="0.15" d="M254 382C300.392 382 338 344.392 338 298C338 251.608 300.392 214 254 214C207.608 214 170 251.608 170 298C170 344.392 207.608 382 254 382Z" stroke="#3F68FF" stroke-width="2"/>
<path opacity="0.15" d="M254 404C312.542 404 360 356.542 360 298C360 239.458 312.542 192 254 192C195.458 192 148 239.458 148 298C148 356.542 195.458 404 254 404Z" stroke="#3F68FF" stroke-width="2"/>
<path opacity="0.15" d="M254 426C324.692 426 382 368.692 382 298C382 227.308 324.692 170 254 170C183.308 170 126 227.308 126 298C126 368.692 183.308 426 254 426Z" stroke="#3F68FF" stroke-width="2"/>
<path opacity="0.15" d="M254 448C336.843 448 404 380.843 404 298C404 215.157 336.843 148 254 148C171.157 148 104 215.157 104 298C104 380.843 171.157 448 254 448Z" stroke="#3F68FF" stroke-width="2"/>
<path opacity="0.15" d="M254 470C348.993 470 426 392.993 426 298C426 203.007 348.993 126 254 126C159.007 126 82 203.007 82 298C82 392.993 159.007 470 254 470Z" stroke="#3F68FF" stroke-width="2"/>
<path opacity="0.15" d="M254 492C361.143 492 448 405.143 448 298C448 190.857 361.143 104 254 104C146.857 104 60 190.857 60 298C60 405.143 146.857 492 254 492Z" stroke="#3F68FF" stroke-width="2"/>
<path opacity="0.5" d="M130.359 264.871C148.656 196.587 218.843 156.065 287.127 174.361C324.029 184.249 352.823 209.292 368.608 241" stroke="#3F68FF" stroke-width="2"/>
<path opacity="0.5" d="M178.999 168.096C250.742 126.674 342.481 151.256 383.902 223C416.209 278.956 408.365 347.077 369.308 394" stroke="#3F68FF" stroke-width="2"/>
<path opacity="0.5" d="M132.378 176.377C199.548 109.207 308.452 109.207 375.622 176.377C424.997 225.752 438.078 297.677 414.865 359" stroke="#3F68FF" stroke-width="2"/>
<path opacity="0.5" d="M203.79 110.61C307.282 82.8796 413.66 144.297 441.391 247.789C446.203 265.748 448.33 283.793 448.019 301.5" stroke="#3F68FF" stroke-width="2"/>
</g>
</g>
<defs>
<clipPath id="clip0_2184_11648">
<rect width="508" height="258" fill="white"/>
</clipPath>
<clipPath id="clip1_2184_11648">
<rect width="420" height="420" fill="white" transform="translate(44 88)"/>
</clipPath>
</defs>
</svg>
