<svg preserveAspectRatio="none" width="100%" height="100%" overflow="visible" style="display: block;" viewBox="0 0 143.954 139.75" fill="none" xmlns="http://www.w3.org/2000/svg">
<path id="Union" d="M118.097 84.4229C126.835 79.7966 137.67 83.2684 142.092 92.1123C146.255 100.439 143.219 110.568 135.163 115.232L101.534 134.702C95.8234 138.009 89.3411 139.75 82.7422 139.75H6.08887C3.12034 139.75 0.713867 137.344 0.713867 134.375C0.713867 131.406 3.12034 129 6.08887 129H82.7422C87.4496 129 92.0736 127.758 96.1475 125.399L129.776 105.929C132.916 104.111 134.099 100.164 132.477 96.9199C130.753 93.4738 126.531 92.1211 123.126 93.9238L88.5098 112.25C87.735 112.66 86.8708 112.875 85.9941 112.875H69.8691C66.9007 112.875 64.4941 110.468 64.4941 107.5C64.4941 104.532 66.9007 102.125 69.8691 102.125H80.4727C79.8145 99.0528 77.0859 96.7501 73.8184 96.75H44.9707C41.3093 96.75 37.674 98.0189 34.5088 99.8682C31.3114 101.736 28.9878 103.966 27.9502 105.35C26.9352 106.703 25.3421 107.5 23.6504 107.5H5.375C2.40647 107.5 0 105.094 0 102.125C0 99.1565 2.40647 96.75 5.375 96.75H21.1885C23.203 94.6409 25.9238 92.4334 29.0859 90.5859C33.383 88.0755 38.8856 86 44.9707 86H73.8184C81.9032 86.0001 88.7084 91.4647 90.749 98.9004L118.097 84.4229ZM71.8857 0C73.4442 0 74.707 1.29547 74.707 2.89453V8.78809C78.6876 8.99797 82.5591 10.4227 85.7676 12.8936C87.1427 13.9536 87.2134 16.0669 85.9688 17.2861L81.8252 21.3418C80.8485 22.2965 79.3961 22.3397 78.2539 21.6055C76.8929 20.7263 75.3412 20.2598 73.7334 20.2598H63.8223C61.5305 20.2598 59.6612 22.4012 59.6611 25.0312C59.6611 27.1838 60.9345 29.076 62.7539 29.6367L78.624 34.5205C85.1823 36.5392 89.7627 42.994 89.7627 50.2188C89.7626 59.093 83.0455 66.2955 74.7139 66.5234V72.3555C74.7139 73.9545 73.451 75.25 71.8926 75.25H66.252C64.6935 75.25 63.4307 73.9545 63.4307 72.3555V66.4619C59.45 66.2521 55.5786 64.8272 52.3701 62.3564C50.995 61.2964 50.9243 59.1831 52.1689 57.9639L56.3115 53.9082C57.2882 52.9531 58.7414 52.9101 59.8838 53.6445C61.2448 54.5236 62.7965 54.9902 64.4043 54.9902H74.3115C76.6033 54.9902 78.4726 52.8488 78.4727 50.2188C78.4727 48.0662 77.1993 46.174 75.3799 45.6133L59.5098 40.7295C52.9551 38.7108 48.375 32.256 48.375 25.0312C48.3751 16.1605 55.0921 8.95448 63.4238 8.72656V2.89453C63.4238 1.29558 64.6858 0.000183933 66.2441 0H71.8857Z" fill="var(--fill-0, #B8BFCC)"/>
</svg>
