<svg width="200" height="200" viewBox="0 0 200 200" fill="none" xmlns="http://www.w3.org/2000/svg">
<path opacity="0.2" d="M26 198V85L174 129V198H26Z" fill="url(#paint0_linear_2185_9619)"/>
<rect x="24.8594" y="81.5811" width="132" height="88" rx="5" transform="rotate(-15 24.8594 81.5811)" fill="#2EA12B"/>
<rect opacity="0.3" x="131.324" y="123.453" width="24" height="10" rx="5" transform="rotate(-15 131.324 123.453)" fill="white"/>
<rect opacity="0.3" x="58.6914" y="146.021" width="32" height="4" rx="2" transform="rotate(-15 58.6914 146.021)" fill="white"/>
<rect opacity="0.3" x="55.8438" y="135.396" width="48" height="4" rx="2" transform="rotate(-15 55.8438 135.396)" fill="white"/>
<rect opacity="0.3" x="138.914" y="113.137" width="12" height="4" rx="2" transform="rotate(-15 138.914 113.137)" fill="white"/>
<path d="M53.428 120.514L48.9104 103.654L52.475 102.699L54.339 109.656L61.5752 107.717L59.7113 100.76L63.2676 99.8075L67.7852 116.667L64.2288 117.62L62.3627 110.656L55.1265 112.595L56.9926 119.559L53.428 120.514ZM76.6519 101.418C76.4081 100.772 75.9872 100.332 75.3893 100.098C74.7913 99.8638 74.0643 99.8616 73.2081 100.091C72.6264 100.247 72.1572 100.461 71.8007 100.733C71.4427 100.999 71.1949 101.304 71.0573 101.647C70.9253 101.988 70.9078 102.34 71.0048 102.702C71.0747 103.007 71.2084 103.253 71.4059 103.441C71.6089 103.628 71.8559 103.771 72.147 103.869C72.4366 103.962 72.7595 104.026 73.1157 104.06C73.4704 104.088 73.8426 104.094 74.2324 104.078L75.8442 104.035C76.6237 104.002 77.3576 104.041 78.0458 104.151C78.734 104.26 79.3568 104.455 79.9142 104.735C80.4716 105.015 80.9465 105.394 81.3391 105.871C81.7371 106.347 82.033 106.935 82.2267 107.636C82.4977 108.669 82.474 109.634 82.1555 110.532C81.8411 111.422 81.2513 112.206 80.3862 112.885C79.5251 113.557 78.4085 114.077 77.0364 114.444C75.6754 114.809 74.434 114.918 73.3124 114.772C72.1963 114.624 71.2461 114.216 70.4617 113.55C69.6813 112.877 69.1149 111.938 68.7624 110.732L72.2118 109.808C72.4017 110.363 72.69 110.791 73.0769 111.094C73.4678 111.389 73.9304 111.568 74.4648 111.63C75.0033 111.686 75.5799 111.632 76.1945 111.467C76.7982 111.305 77.2988 111.077 77.6963 110.782C78.0993 110.486 78.3824 110.148 78.5455 109.769C78.7087 109.39 78.7358 108.998 78.627 108.592C78.5255 108.213 78.3277 107.925 78.0336 107.727C77.745 107.528 77.3623 107.395 76.8857 107.329C76.4146 107.261 75.8518 107.235 75.1975 107.252L73.2381 107.283C71.724 107.318 70.4568 107.078 69.4366 106.563C68.4163 106.048 67.742 105.167 67.4136 103.92C67.1346 102.901 67.1673 101.936 67.5117 101.026C67.8616 100.115 68.4622 99.3156 69.3134 98.6287C70.1646 97.9418 71.2049 97.4337 72.4343 97.1042C73.6856 96.769 74.8351 96.6904 75.8828 96.8684C76.936 97.0451 77.8255 97.4449 78.5513 98.0681C79.2771 98.6913 79.7827 99.5028 80.0683 100.503L76.6519 101.418ZM88.436 111.134L84.6162 112.157L85.9189 93.7381L90.5125 92.5073L100.842 107.81L97.0223 108.833L89.3139 96.9578L89.1821 96.9931L88.436 111.134ZM86.4215 104.571L95.4442 102.153L96.1897 104.936L87.1671 107.353L86.4215 104.571Z" fill="white"/>
<ellipse cx="63" cy="60.5" rx="18" ry="18.5" fill="#EB2958"/>
<path d="M40.6953 58.6853C40.6953 53.7949 42.7378 49.3914 45.9994 46.3154" stroke="#EB2958" stroke-width="2" stroke-linecap="round"/>
<path d="M37.4492 53.2178C38.0246 50.7071 39.0745 48.382 40.4974 46.3457" stroke="#EB2958" stroke-width="2" stroke-linecap="round"/>
<path d="M57.4664 53.0607L59.8068 65.0607L56.7626 65.7408L53.7651 53.8876L57.4664 53.0607ZM59.474 70.724C58.925 70.8467 58.4103 70.7579 57.9299 70.4577C57.4482 70.152 57.1489 69.724 57.0318 69.1738C56.9048 68.6316 56.9948 68.1225 57.3018 67.6463C57.6088 67.1702 58.0368 66.8708 58.5857 66.7482C59.1125 66.6305 59.6189 66.7211 60.1049 67.0201C60.5908 67.3191 60.8973 67.7396 61.0242 68.2818C61.1005 68.649 61.0784 69.0062 60.958 69.3533C60.8419 69.6936 60.6546 69.9887 60.396 70.2386C60.1362 70.4829 59.8289 70.6448 59.474 70.724Z" fill="white"/>
<path d="M64.4024 64.9028L64.4374 64.6152C64.5634 63.6289 64.7467 62.8527 64.9874 62.2868C65.2337 61.7215 65.5452 61.2787 65.922 60.9583C66.2987 60.6378 66.7391 60.3595 67.2429 60.1233C67.6201 59.9403 67.9617 59.7444 68.2676 59.5355C68.5735 59.3267 68.8261 59.0856 69.0254 58.8123C69.2254 58.5333 69.3477 58.2105 69.3924 57.8439C69.4398 57.4547 69.3884 57.1021 69.238 56.7862C69.0876 56.4702 68.8641 56.214 68.5675 56.0176C68.2766 55.8219 67.9421 55.701 67.5643 55.6549C67.1977 55.6102 66.8408 55.6497 66.4938 55.7734C66.1474 55.8915 65.8506 56.0957 65.6034 56.3861C65.357 56.6709 65.1971 57.0435 65.1238 57.5039L61.672 57.0833C61.8377 55.9587 62.2219 55.0611 62.8245 54.3904C63.4278 53.7141 64.1744 53.247 65.0644 52.9892C65.9551 52.7257 66.9109 52.6561 67.9317 52.7805C69.0541 52.9173 70.0241 53.2244 70.8416 53.7018C71.6599 54.1736 72.2718 54.7891 72.6772 55.5482C73.0827 56.3074 73.2253 57.1805 73.105 58.1675C73.0245 58.8274 72.8431 59.4006 72.5606 59.887C72.2844 60.3685 71.9276 60.7829 71.4904 61.1303C71.0538 61.4721 70.5511 61.7685 69.9825 62.0198C69.5046 62.2306 69.1043 62.4622 68.7816 62.7148C68.4646 62.9681 68.2125 63.2751 68.0255 63.6358C67.844 63.9972 67.7168 64.4539 67.6438 65.0059L67.6088 65.2936L64.4024 64.9028ZM65.4176 70.5215C64.8536 70.4527 64.3954 70.1966 64.0431 69.7529C63.6971 69.3044 63.561 68.8013 63.6346 68.2436C63.6964 67.6902 63.9487 67.2401 64.3916 66.8934C64.8402 66.5474 65.3465 66.4088 65.9105 66.4775C66.4463 66.5428 66.8932 66.7976 67.2511 67.2419C67.6091 67.6862 67.7572 68.1851 67.6955 68.7385C67.6445 69.11 67.5042 69.4392 67.2746 69.7261C67.0514 70.0079 66.7762 70.2234 66.4489 70.3724C66.1224 70.5158 65.7786 70.5655 65.4176 70.5215Z" fill="white"/>
<path d="M144.615 15.1376L150.089 41.0492C150.301 42.0523 151.705 42.1247 152.019 41.1487L160.653 14.3155C160.869 13.6437 160.34 12.9654 159.636 13.0114L145.528 13.933C144.92 13.9727 144.489 14.5418 144.615 15.1376Z" fill="#B8E7D1"/>
<path d="M167.089 21.3755L156.011 42.9377C155.574 43.7881 156.465 44.708 157.329 44.2982L174.96 35.9352C175.465 35.6955 175.676 35.088 175.427 34.5871L168.875 21.3878C168.51 20.6531 167.464 20.6458 167.089 21.3755Z" fill="#B8E7D1"/>
<path d="M170.871 46.0671L160.434 48.0518C159.49 48.2313 159.318 49.5086 160.18 49.9319L172.251 55.8559C172.997 56.2223 173.839 55.5704 173.67 54.7559L172.037 46.8472C171.926 46.3124 171.407 45.9651 170.871 46.0671Z" fill="#B8E7D1"/>
<defs>
<linearGradient id="paint0_linear_2185_9619" x1="102" y1="75.5" x2="102" y2="200" gradientUnits="userSpaceOnUse">
<stop stop-color="#2EA12B"/>
<stop offset="1" stop-color="#2EA12B" stop-opacity="0"/>
</linearGradient>
</defs>
</svg>
