<svg preserveAspectRatio="none" width="100%" height="100%" overflow="visible" style="display: block;" viewBox="0 0 26.782 26" fill="none" xmlns="http://www.w3.org/2000/svg">
<path id="Union" d="M21.9717 15.707C23.5974 14.8464 25.6127 15.4916 26.4355 17.1367C27.2101 18.6858 26.6454 20.5707 25.1465 21.4385L18.8896 25.0605C17.8272 25.6756 16.6212 26 15.3936 26H1.13281C0.580528 26 0.132812 25.5523 0.132812 25C0.132812 24.4477 0.580528 24 1.13281 24H15.3936C16.2693 24 17.1298 23.7688 17.8877 23.3301L24.1445 19.708C24.7286 19.3699 24.9483 18.6349 24.6465 18.0312C24.3258 17.3904 23.5406 17.1393 22.9072 17.4746L16.4668 20.8838C16.3227 20.9601 16.1621 21 15.999 21H12.999C12.4467 21 11.999 20.5523 11.999 20C11.999 19.4477 12.4467 19 12.999 19H14.9717C14.8492 18.4284 14.3413 18 13.7334 18H8.36621C7.68516 18.0001 7.00867 18.2361 6.41992 18.5801C5.82538 18.9275 5.39332 19.3422 5.2002 19.5996C5.01142 19.8513 4.715 19.9999 4.40039 20H1C0.447715 20 0 19.5523 0 19C0 18.4477 0.447715 18 1 18H3.94238C4.31711 17.6077 4.82304 17.1971 5.41113 16.8535C6.21048 16.3865 7.23426 16.0001 8.36621 16H13.7334C15.2376 16 16.5032 17.0169 16.8828 18.4004L21.9717 15.707ZM13.374 0C13.6638 0 13.8992 0.240759 13.8994 0.538086V1.63477C14.6398 1.67389 15.3602 1.93884 15.957 2.39844C16.2128 2.59563 16.2256 2.98898 15.9941 3.21582L15.2236 3.9707C15.0419 4.1484 14.7711 4.15617 14.5586 4.01953C14.3054 3.85607 14.0168 3.76953 13.7178 3.76953H11.874C11.4476 3.76953 11.0996 4.1679 11.0996 4.65723C11.0997 5.05749 11.3366 5.40923 11.6748 5.51367L14.6279 6.42285C15.8479 6.79851 16.7001 7.99883 16.7002 9.34277C16.7002 10.9938 15.4504 12.3345 13.9004 12.377V13.4619C13.9002 13.7592 13.6648 14 13.375 14H12.3262C12.0363 14 11.801 13.7592 11.8008 13.4619V12.3652C11.0603 12.3261 10.34 12.0611 9.74316 11.6016C9.48733 11.4044 9.47449 11.011 9.70605 10.7842L10.4766 10.0293C10.6583 9.85168 10.9291 9.84385 11.1416 9.98047C11.3947 10.1439 11.6834 10.2305 11.9824 10.2305H13.8252C14.2516 10.2305 14.5996 9.8321 14.5996 9.34277C14.5995 8.94247 14.3627 8.59072 14.0244 8.48633L11.0713 7.57715C9.85208 7.20145 9.00009 6.00113 9 4.65723C9 3.00684 10.2497 1.66545 11.7998 1.62305V0.538086C11.8 0.240873 12.0345 0.000184895 12.3242 0H13.374Z" fill="var(--fill-0, #2EA12B)"/>
</svg>
