<svg width="72" height="72" viewBox="0 0 72 72" fill="none" xmlns="http://www.w3.org/2000/svg">
<path d="M58 3C60.2091 3 62 4.79086 62 7V43.043C61.9757 43.0274 61.9511 43.0124 61.9268 42.9971C65.5759 45.2992 68 49.3665 68 54C68 57.559 66.568 60.7823 64.251 63.1299L70.0605 68.9395C70.6463 69.5252 70.6463 70.4748 70.0605 71.0605C69.4748 71.6463 68.5252 71.6463 67.9395 71.0605L61.9395 65.0605C61.9257 65.0468 61.9135 65.0317 61.9004 65.0176C59.9005 66.2728 57.5354 67 55 67C49.2159 67 44.3141 63.2225 42.627 58H5L4.79395 57.9951C2.68056 57.8879 1 56.14 1 54V7C1 4.85996 2.68056 3.11211 4.79395 3.00488L5 3H58ZM55 44C49.4772 44 45 48.4772 45 54C45 59.5228 49.4772 64 55 64C60.5228 64 65 59.5228 65 54C65 48.4772 60.5228 44 55 44ZM57.9395 48.9395C58.5252 48.3537 59.4748 48.3537 60.0605 48.9395C60.6463 49.5252 60.6463 50.4748 60.0605 51.0605L57.1211 54L60.0605 56.9395C60.6463 57.5252 60.6463 58.4748 60.0605 59.0605C59.4748 59.6463 58.5252 59.6463 57.9395 59.0605L55 56.1211L52.0605 59.0605C51.4748 59.6463 50.5252 59.6463 49.9395 59.0605C49.3537 58.4748 49.3537 57.5252 49.9395 56.9395L52.8789 54L49.9395 51.0605C49.3537 50.4748 49.3537 49.5252 49.9395 48.9395C50.5252 48.3537 51.4748 48.3537 52.0605 48.9395L55 51.8789L57.9395 48.9395ZM5 6C4.44772 6 4 6.44772 4 7V54C4 54.5523 4.44772 55 5 55H42.0381C42.013 54.67 42 54.3365 42 54C42 46.8203 47.8203 41 55 41C56.4061 41 57.76 41.2237 59.0283 41.6367C59.0188 41.6336 59.0095 41.63 59 41.627V7C59 6.44771 58.5523 6 58 6H5ZM20 42C21.1046 42 22 42.8954 22 44V49C22 50.1046 21.1046 51 20 51H11L10.7959 50.9893C9.78722 50.887 9 50.0357 9 49V44C9 42.8954 9.89543 42 11 42H20ZM12 47.875V48H16.1465L19 45.1465V45H14.9062L12 47.875ZM16.8535 48H19V45.8535L16.8535 48ZM12 47.1719L14.1953 45H12V47.1719ZM61.0645 42.499C61.0179 42.4744 60.9717 42.4489 60.9248 42.4248L60.918 42.4219C60.9671 42.447 61.0157 42.4733 61.0645 42.499ZM27 22C28.1046 22 29 22.8954 29 24V29C29 30.1046 28.1046 31 27 31H11C9.89543 31 9 30.1046 9 29V24C9 22.8954 9.89543 22 11 22H27ZM12 28H12.1641L15.1953 25H12V28ZM12.874 28H17.1641L20.1953 25H15.9062L12.874 28ZM17.874 28H22.1641L25.1953 25H20.9062L17.874 28ZM22.874 28H26V25H25.9062L22.874 28ZM37 11C38.1046 11 39 11.8954 39 13V18C39 19.1046 38.1046 20 37 20H11L10.7959 19.9893C9.78722 19.887 9 19.0357 9 18V13C9 11.8954 9.89543 11 11 11H37ZM32.874 17H36V14H35.9062L32.874 17ZM27.874 17H32.1641L35.1953 14H30.9062L27.874 17ZM22.874 17H27.1641L30.1953 14H25.9062L22.874 17ZM17.874 17H22.1641L25.1953 14H20.9062L17.874 17ZM12.874 17H17.1641L20.1953 14H15.9062L12.874 17ZM12 17H12.1641L15.1953 14H12V17Z" fill="#9BA3B3"/>
</svg>
