<svg width="720" height="460" viewBox="0 0 720 460" fill="none" xmlns="http://www.w3.org/2000/svg">
<g clip-path="url(#clip0_2185_11915)">
<rect width="720" height="460" fill="white"/>
<g opacity="0.2">
<rect x="1.92969" y="2" width="44.2971" height="44.2971" rx="7.38286" fill="#E5E9F0"/>
<rect x="49.9219" y="2" width="44.2971" height="44.2971" rx="7.38286" fill="#E5E9F0"/>
<rect x="97.9102" y="2" width="44.2971" height="44.2971" rx="7.38286" fill="#E5E9F0"/>
<rect x="145.898" y="2" width="44.2971" height="44.2971" rx="7.38286" fill="#E5E9F0"/>
<rect x="193.887" y="2" width="44.2971" height="44.2971" rx="7.38286" fill="#E5E9F0"/>
<rect x="241.875" y="2" width="44.2971" height="44.2971" rx="7.38286" fill="#E5E9F0"/>
<rect x="289.863" y="2" width="44.2971" height="44.2971" rx="7.38286" fill="#E5E9F0"/>
<rect x="337.852" y="2" width="44.2971" height="44.2971" rx="7.38286" fill="#E5E9F0"/>
<rect x="385.84" y="2" width="44.2971" height="44.2971" rx="7.38286" fill="#E5E9F0"/>
<rect x="433.828" y="2" width="44.2971" height="44.2971" rx="7.38286" fill="#E5E9F0"/>
<rect x="481.816" y="2" width="44.2971" height="44.2971" rx="7.38286" fill="#E5E9F0"/>
<rect x="529.805" y="2" width="44.2971" height="44.2971" rx="7.38286" fill="#E5E9F0"/>
<rect x="577.793" y="2" width="44.2971" height="44.2971" rx="7.38286" fill="#E5E9F0"/>
<rect x="625.781" y="2" width="44.2971" height="44.2971" rx="7.38286" fill="#E5E9F0"/>
<rect x="673.773" y="2" width="44.2971" height="44.2971" rx="7.38286" fill="#E5E9F0"/>
<rect x="1.92969" y="49.9883" width="44.2971" height="44.2971" rx="7.38286" fill="#E5E9F0"/>
<rect x="49.9219" y="49.9883" width="44.2971" height="44.2971" rx="7.38286" fill="#E5E9F0"/>
<rect x="97.9102" y="49.9883" width="44.2971" height="44.2971" rx="7.38286" fill="#E5E9F0"/>
<rect x="145.898" y="49.9883" width="44.2971" height="44.2971" rx="7.38286" fill="#E5E9F0"/>
<rect x="193.887" y="49.9883" width="44.2971" height="44.2971" rx="7.38286" fill="#E5E9F0"/>
<rect x="241.875" y="49.9883" width="44.2971" height="44.2971" rx="7.38286" fill="#E5E9F0"/>
<rect x="289.863" y="49.9883" width="44.2971" height="44.2971" rx="7.38286" fill="#E5E9F0"/>
<rect x="337.852" y="49.9883" width="44.2971" height="44.2971" rx="7.38286" fill="#E5E9F0"/>
<rect x="385.84" y="49.9883" width="44.2971" height="44.2971" rx="7.38286" fill="#E5E9F0"/>
<rect x="433.828" y="49.9883" width="44.2971" height="44.2971" rx="7.38286" fill="#E5E9F0"/>
<rect x="481.816" y="49.9883" width="44.2971" height="44.2971" rx="7.38286" fill="#E5E9F0"/>
<rect x="529.805" y="49.9883" width="44.2971" height="44.2971" rx="7.38286" fill="#E5E9F0"/>
<rect x="577.793" y="49.9883" width="44.2971" height="44.2971" rx="7.38286" fill="#E5E9F0"/>
<rect x="625.781" y="49.9883" width="44.2971" height="44.2971" rx="7.38286" fill="#E5E9F0"/>
<rect x="673.773" y="49.9883" width="44.2971" height="44.2971" rx="7.38286" fill="#E5E9F0"/>
<rect x="1.92969" y="97.9775" width="44.2971" height="44.2971" rx="7.38286" fill="#E5E9F0"/>
<rect x="49.9219" y="97.9775" width="44.2971" height="44.2971" rx="7.38286" fill="#E5E9F0"/>
<rect x="97.9102" y="97.9775" width="44.2971" height="44.2971" rx="7.38286" fill="#E5E9F0"/>
<rect x="145.898" y="97.9775" width="44.2971" height="44.2971" rx="7.38286" fill="#E5E9F0"/>
<rect x="193.887" y="97.9775" width="44.2971" height="44.2971" rx="7.38286" fill="#E5E9F0"/>
<rect x="241.875" y="97.9775" width="44.2971" height="44.2971" rx="7.38286" fill="#E5E9F0"/>
<rect x="289.863" y="97.9775" width="44.2971" height="44.2971" rx="7.38286" fill="#E5E9F0"/>
<rect x="337.852" y="97.9775" width="44.2971" height="44.2971" rx="7.38286" fill="#E5E9F0"/>
<rect x="385.84" y="97.9775" width="44.2971" height="44.2971" rx="7.38286" fill="#E5E9F0"/>
<rect x="433.828" y="97.9775" width="44.2971" height="44.2971" rx="7.38286" fill="#E5E9F0"/>
<rect x="481.816" y="97.9775" width="44.2971" height="44.2971" rx="7.38286" fill="#E5E9F0"/>
<rect x="529.805" y="97.9775" width="44.2971" height="44.2971" rx="7.38286" fill="#E5E9F0"/>
<rect x="577.793" y="97.9775" width="44.2971" height="44.2971" rx="7.38286" fill="#E5E9F0"/>
<rect x="625.781" y="97.9775" width="44.2971" height="44.2971" rx="7.38286" fill="#E5E9F0"/>
<rect x="673.773" y="97.9775" width="44.2971" height="44.2971" rx="7.38286" fill="#E5E9F0"/>
<rect x="1.92969" y="145.966" width="44.2971" height="44.2971" rx="7.38286" fill="#E5E9F0"/>
<rect x="49.9219" y="145.966" width="44.2971" height="44.2971" rx="7.38286" fill="#E5E9F0"/>
<rect x="97.9102" y="145.966" width="44.2971" height="44.2971" rx="7.38286" fill="#E5E9F0"/>
<rect x="145.898" y="145.966" width="44.2971" height="44.2971" rx="7.38286" fill="#E5E9F0"/>
<rect x="193.887" y="145.966" width="44.2971" height="44.2971" rx="7.38286" fill="#E5E9F0"/>
<rect x="241.875" y="145.966" width="44.2971" height="44.2971" rx="7.38286" fill="#E5E9F0"/>
<rect x="289.863" y="145.966" width="44.2971" height="44.2971" rx="7.38286" fill="#E5E9F0"/>
<rect x="337.852" y="145.966" width="44.2971" height="44.2971" rx="7.38286" fill="#E5E9F0"/>
<rect x="385.84" y="145.966" width="44.2971" height="44.2971" rx="7.38286" fill="#E5E9F0"/>
<rect x="433.828" y="145.966" width="44.2971" height="44.2971" rx="7.38286" fill="#E5E9F0"/>
<rect x="481.816" y="145.966" width="44.2971" height="44.2971" rx="7.38286" fill="#E5E9F0"/>
<rect x="529.805" y="145.966" width="44.2971" height="44.2971" rx="7.38286" fill="#E5E9F0"/>
<rect x="577.793" y="145.966" width="44.2971" height="44.2971" rx="7.38286" fill="#E5E9F0"/>
<rect x="625.781" y="145.966" width="44.2971" height="44.2971" rx="7.38286" fill="#E5E9F0"/>
<rect x="673.773" y="145.966" width="44.2971" height="44.2971" rx="7.38286" fill="#E5E9F0"/>
<rect x="1.92969" y="193.954" width="44.2971" height="44.2971" rx="7.38286" fill="#E5E9F0"/>
<rect x="49.9219" y="193.954" width="44.2971" height="44.2971" rx="7.38286" fill="#E5E9F0"/>
<rect x="97.9102" y="193.954" width="44.2971" height="44.2971" rx="7.38286" fill="#E5E9F0"/>
<rect x="145.898" y="193.954" width="44.2971" height="44.2971" rx="7.38286" fill="#E5E9F0"/>
<rect x="193.887" y="193.954" width="44.2971" height="44.2971" rx="7.38286" fill="#E5E9F0"/>
<rect x="241.875" y="193.954" width="44.2971" height="44.2971" rx="7.38286" fill="#E5E9F0"/>
<rect x="289.863" y="193.954" width="44.2971" height="44.2971" rx="7.38286" fill="#E5E9F0"/>
<rect x="337.852" y="193.954" width="44.2971" height="44.2971" rx="7.38286" fill="#E5E9F0"/>
<rect x="385.84" y="193.954" width="44.2971" height="44.2971" rx="7.38286" fill="#E5E9F0"/>
<rect x="433.828" y="193.954" width="44.2971" height="44.2971" rx="7.38286" fill="#E5E9F0"/>
<rect x="481.816" y="193.954" width="44.2971" height="44.2971" rx="7.38286" fill="#E5E9F0"/>
<rect x="529.805" y="193.954" width="44.2971" height="44.2971" rx="7.38286" fill="#E5E9F0"/>
<rect x="577.793" y="193.954" width="44.2971" height="44.2971" rx="7.38286" fill="#E5E9F0"/>
<rect x="625.781" y="193.954" width="44.2971" height="44.2971" rx="7.38286" fill="#E5E9F0"/>
<rect x="673.773" y="193.954" width="44.2971" height="44.2971" rx="7.38286" fill="#E5E9F0"/>
<rect x="1.92969" y="241.943" width="44.2971" height="44.2971" rx="7.38286" fill="#E5E9F0"/>
<rect x="49.9219" y="241.943" width="44.2971" height="44.2971" rx="7.38286" fill="#E5E9F0"/>
<rect x="97.9102" y="241.943" width="44.2971" height="44.2971" rx="7.38286" fill="#E5E9F0"/>
<rect x="145.898" y="241.943" width="44.2971" height="44.2971" rx="7.38286" fill="#E5E9F0"/>
<rect x="193.887" y="241.943" width="44.2971" height="44.2971" rx="7.38286" fill="#E5E9F0"/>
<rect x="241.875" y="241.943" width="44.2971" height="44.2971" rx="7.38286" fill="#E5E9F0"/>
<rect x="289.863" y="241.943" width="44.2971" height="44.2971" rx="7.38286" fill="#E5E9F0"/>
<rect x="337.852" y="241.943" width="44.2971" height="44.2971" rx="7.38286" fill="#E5E9F0"/>
<rect x="385.84" y="241.943" width="44.2971" height="44.2971" rx="7.38286" fill="#E5E9F0"/>
<rect x="433.828" y="241.943" width="44.2971" height="44.2971" rx="7.38286" fill="#E5E9F0"/>
<rect x="481.816" y="241.943" width="44.2971" height="44.2971" rx="7.38286" fill="#E5E9F0"/>
<rect x="529.805" y="241.943" width="44.2971" height="44.2971" rx="7.38286" fill="#E5E9F0"/>
<rect x="577.793" y="241.943" width="44.2971" height="44.2971" rx="7.38286" fill="#E5E9F0"/>
<rect x="625.781" y="241.943" width="44.2971" height="44.2971" rx="7.38286" fill="#E5E9F0"/>
<rect x="673.773" y="241.943" width="44.2971" height="44.2971" rx="7.38286" fill="#E5E9F0"/>
<rect x="1.92969" y="289.932" width="44.2971" height="44.2971" rx="7.38286" fill="#E5E9F0"/>
<rect x="49.9219" y="289.932" width="44.2971" height="44.2971" rx="7.38286" fill="#E5E9F0"/>
<rect x="97.9102" y="289.932" width="44.2971" height="44.2971" rx="7.38286" fill="#E5E9F0"/>
<rect x="145.898" y="289.932" width="44.2971" height="44.2971" rx="7.38286" fill="#E5E9F0"/>
<rect x="193.887" y="289.932" width="44.2971" height="44.2971" rx="7.38286" fill="#E5E9F0"/>
<rect x="241.875" y="289.932" width="44.2971" height="44.2971" rx="7.38286" fill="#E5E9F0"/>
<rect x="289.863" y="289.932" width="44.2971" height="44.2971" rx="7.38286" fill="#E5E9F0"/>
<rect x="337.852" y="289.932" width="44.2971" height="44.2971" rx="7.38286" fill="#E5E9F0"/>
<rect x="385.84" y="289.932" width="44.2971" height="44.2971" rx="7.38286" fill="#E5E9F0"/>
<rect x="433.828" y="289.932" width="44.2971" height="44.2971" rx="7.38286" fill="#E5E9F0"/>
<rect x="481.816" y="289.932" width="44.2971" height="44.2971" rx="7.38286" fill="#E5E9F0"/>
<rect x="529.805" y="289.932" width="44.2971" height="44.2971" rx="7.38286" fill="#E5E9F0"/>
<rect x="577.793" y="289.932" width="44.2971" height="44.2971" rx="7.38286" fill="#E5E9F0"/>
<rect x="625.781" y="289.932" width="44.2971" height="44.2971" rx="7.38286" fill="#E5E9F0"/>
<rect x="673.773" y="289.932" width="44.2971" height="44.2971" rx="7.38286" fill="#E5E9F0"/>
<rect x="1.92969" y="337.92" width="44.2971" height="44.2971" rx="7.38286" fill="#E5E9F0"/>
<rect x="49.9219" y="337.92" width="44.2971" height="44.2971" rx="7.38286" fill="#E5E9F0"/>
<rect x="97.9102" y="337.92" width="44.2971" height="44.2971" rx="7.38286" fill="#E5E9F0"/>
<rect x="145.898" y="337.92" width="44.2971" height="44.2971" rx="7.38286" fill="#E5E9F0"/>
<rect x="193.887" y="337.92" width="44.2971" height="44.2971" rx="7.38286" fill="#E5E9F0"/>
<rect x="241.875" y="337.92" width="44.2971" height="44.2971" rx="7.38286" fill="#E5E9F0"/>
<rect x="289.863" y="337.92" width="44.2971" height="44.2971" rx="7.38286" fill="#E5E9F0"/>
<rect x="337.852" y="337.92" width="44.2971" height="44.2971" rx="7.38286" fill="#E5E9F0"/>
<rect x="385.84" y="337.92" width="44.2971" height="44.2971" rx="7.38286" fill="#E5E9F0"/>
<rect x="433.828" y="337.92" width="44.2971" height="44.2971" rx="7.38286" fill="#E5E9F0"/>
<rect x="481.816" y="337.92" width="44.2971" height="44.2971" rx="7.38286" fill="#E5E9F0"/>
<rect x="529.805" y="337.92" width="44.2971" height="44.2971" rx="7.38286" fill="#E5E9F0"/>
<rect x="577.793" y="337.92" width="44.2971" height="44.2971" rx="7.38286" fill="#E5E9F0"/>
<rect x="625.781" y="337.92" width="44.2971" height="44.2971" rx="7.38286" fill="#E5E9F0"/>
<rect x="673.773" y="337.92" width="44.2971" height="44.2971" rx="7.38286" fill="#E5E9F0"/>
<rect x="1.92969" y="385.908" width="44.2971" height="44.2971" rx="7.38286" fill="#E5E9F0"/>
<rect x="49.9219" y="385.908" width="44.2971" height="44.2971" rx="7.38286" fill="#E5E9F0"/>
<rect x="97.9102" y="385.908" width="44.2971" height="44.2971" rx="7.38286" fill="#E5E9F0"/>
<rect x="145.898" y="385.908" width="44.2971" height="44.2971" rx="7.38286" fill="#E5E9F0"/>
<rect x="193.887" y="385.908" width="44.2971" height="44.2971" rx="7.38286" fill="#E5E9F0"/>
<rect x="241.875" y="385.908" width="44.2971" height="44.2971" rx="7.38286" fill="#E5E9F0"/>
<rect x="289.863" y="385.908" width="44.2971" height="44.2971" rx="7.38286" fill="#E5E9F0"/>
<rect x="337.852" y="385.908" width="44.2971" height="44.2971" rx="7.38286" fill="#E5E9F0"/>
<rect x="385.84" y="385.908" width="44.2971" height="44.2971" rx="7.38286" fill="#E5E9F0"/>
<rect x="433.828" y="385.908" width="44.2971" height="44.2971" rx="7.38286" fill="#E5E9F0"/>
<rect x="481.816" y="385.908" width="44.2971" height="44.2971" rx="7.38286" fill="#E5E9F0"/>
<rect x="529.805" y="385.908" width="44.2971" height="44.2971" rx="7.38286" fill="#E5E9F0"/>
<rect x="577.793" y="385.908" width="44.2971" height="44.2971" rx="7.38286" fill="#E5E9F0"/>
<rect x="625.781" y="385.908" width="44.2971" height="44.2971" rx="7.38286" fill="#E5E9F0"/>
<rect x="673.773" y="385.908" width="44.2971" height="44.2971" rx="7.38286" fill="#E5E9F0"/>
<rect x="1.92969" y="433.897" width="44.2971" height="44.2971" rx="7.38286" fill="#E5E9F0"/>
<rect x="49.9219" y="433.897" width="44.2971" height="44.2971" rx="7.38286" fill="#E5E9F0"/>
<rect x="97.9102" y="433.897" width="44.2971" height="44.2971" rx="7.38286" fill="#E5E9F0"/>
<rect x="145.898" y="433.897" width="44.2971" height="44.2971" rx="7.38286" fill="#E5E9F0"/>
<rect x="193.887" y="433.897" width="44.2971" height="44.2971" rx="7.38286" fill="#E5E9F0"/>
<rect x="241.875" y="433.897" width="44.2971" height="44.2971" rx="7.38286" fill="#E5E9F0"/>
<rect x="289.863" y="433.897" width="44.2971" height="44.2971" rx="7.38286" fill="#E5E9F0"/>
<rect x="337.852" y="433.897" width="44.2971" height="44.2971" rx="7.38286" fill="#E5E9F0"/>
<rect x="385.84" y="433.897" width="44.2971" height="44.2971" rx="7.38286" fill="#E5E9F0"/>
<rect x="433.828" y="433.897" width="44.2971" height="44.2971" rx="7.38286" fill="#E5E9F0"/>
<rect x="481.816" y="433.897" width="44.2971" height="44.2971" rx="7.38286" fill="#E5E9F0"/>
<rect x="529.805" y="433.897" width="44.2971" height="44.2971" rx="7.38286" fill="#E5E9F0"/>
<rect x="577.793" y="433.897" width="44.2971" height="44.2971" rx="7.38286" fill="#E5E9F0"/>
<rect x="625.781" y="433.897" width="44.2971" height="44.2971" rx="7.38286" fill="#E5E9F0"/>
<rect x="673.773" y="433.897" width="44.2971" height="44.2971" rx="7.38286" fill="#E5E9F0"/>
</g>
<g opacity="0.5">
<mask id="mask0_2185_11915" style="mask-type:alpha" maskUnits="userSpaceOnUse" x="-286" y="2" width="1292" height="909">
<rect x="1.92969" y="2" width="44.2971" height="44.2971" rx="7.38286" fill="white"/>
<rect x="49.9219" y="2" width="44.2971" height="44.2971" rx="7.38286" fill="white"/>
<rect x="97.9102" y="2" width="44.2971" height="44.2971" rx="7.38286" fill="white"/>
<rect x="145.898" y="2" width="44.2971" height="44.2971" rx="7.38286" fill="white"/>
<rect x="193.887" y="2" width="44.2971" height="44.2971" rx="7.38286" fill="white"/>
<rect x="241.875" y="2" width="44.2971" height="44.2971" rx="7.38286" fill="white"/>
<rect x="289.863" y="2" width="44.2971" height="44.2971" rx="7.38286" fill="white"/>
<rect x="337.852" y="2" width="44.2971" height="44.2971" rx="7.38286" fill="white"/>
<rect x="385.84" y="2" width="44.2971" height="44.2971" rx="7.38286" fill="white"/>
<rect x="433.828" y="2" width="44.2971" height="44.2971" rx="7.38286" fill="white"/>
<rect x="481.816" y="2" width="44.2971" height="44.2971" rx="7.38286" fill="white"/>
<rect x="529.805" y="2" width="44.2971" height="44.2971" rx="7.38286" fill="white"/>
<rect x="577.793" y="2" width="44.2971" height="44.2971" rx="7.38286" fill="white"/>
<rect x="625.781" y="2" width="44.2971" height="44.2971" rx="7.38286" fill="white"/>
<rect x="673.773" y="2" width="44.2971" height="44.2971" rx="7.38286" fill="white"/>
<rect x="1.92969" y="49.9883" width="44.2971" height="44.2971" rx="7.38286" fill="white"/>
<rect x="49.9219" y="49.9883" width="44.2971" height="44.2971" rx="7.38286" fill="white"/>
<rect x="97.9102" y="49.9883" width="44.2971" height="44.2971" rx="7.38286" fill="white"/>
<rect x="145.898" y="49.9883" width="44.2971" height="44.2971" rx="7.38286" fill="white"/>
<rect x="193.887" y="49.9883" width="44.2971" height="44.2971" rx="7.38286" fill="white"/>
<rect x="241.875" y="49.9883" width="44.2971" height="44.2971" rx="7.38286" fill="white"/>
<rect x="289.863" y="49.9883" width="44.2971" height="44.2971" rx="7.38286" fill="white"/>
<rect x="337.852" y="49.9883" width="44.2971" height="44.2971" rx="7.38286" fill="white"/>
<rect x="385.84" y="49.9883" width="44.2971" height="44.2971" rx="7.38286" fill="white"/>
<rect x="433.828" y="49.9883" width="44.2971" height="44.2971" rx="7.38286" fill="white"/>
<rect x="481.816" y="49.9883" width="44.2971" height="44.2971" rx="7.38286" fill="white"/>
<rect x="529.805" y="49.9883" width="44.2971" height="44.2971" rx="7.38286" fill="white"/>
<rect x="577.793" y="49.9883" width="44.2971" height="44.2971" rx="7.38286" fill="white"/>
<rect x="625.781" y="49.9883" width="44.2971" height="44.2971" rx="7.38286" fill="white"/>
<rect x="673.773" y="49.9883" width="44.2971" height="44.2971" rx="7.38286" fill="white"/>
<rect x="1.92969" y="97.9775" width="44.2971" height="44.2971" rx="7.38286" fill="white"/>
<rect x="49.9219" y="97.9775" width="44.2971" height="44.2971" rx="7.38286" fill="white"/>
<rect x="97.9102" y="97.9775" width="44.2971" height="44.2971" rx="7.38286" fill="white"/>
<rect x="145.898" y="97.9775" width="44.2971" height="44.2971" rx="7.38286" fill="white"/>
<rect x="193.887" y="97.9775" width="44.2971" height="44.2971" rx="7.38286" fill="white"/>
<rect x="241.875" y="97.9775" width="44.2971" height="44.2971" rx="7.38286" fill="white"/>
<rect x="289.863" y="97.9775" width="44.2971" height="44.2971" rx="7.38286" fill="white"/>
<rect x="337.852" y="97.9775" width="44.2971" height="44.2971" rx="7.38286" fill="white"/>
<rect x="385.84" y="97.9775" width="44.2971" height="44.2971" rx="7.38286" fill="white"/>
<rect x="433.828" y="97.9775" width="44.2971" height="44.2971" rx="7.38286" fill="white"/>
<rect x="481.816" y="97.9775" width="44.2971" height="44.2971" rx="7.38286" fill="white"/>
<rect x="529.805" y="97.9775" width="44.2971" height="44.2971" rx="7.38286" fill="white"/>
<rect x="577.793" y="97.9775" width="44.2971" height="44.2971" rx="7.38286" fill="white"/>
<rect x="625.781" y="97.9775" width="44.2971" height="44.2971" rx="7.38286" fill="white"/>
<rect x="673.773" y="97.9775" width="44.2971" height="44.2971" rx="7.38286" fill="white"/>
<rect x="1.92969" y="145.966" width="44.2971" height="44.2971" rx="7.38286" fill="white"/>
<rect x="49.9219" y="145.966" width="44.2971" height="44.2971" rx="7.38286" fill="white"/>
<rect x="97.9102" y="145.966" width="44.2971" height="44.2971" rx="7.38286" fill="white"/>
<rect x="145.898" y="145.966" width="44.2971" height="44.2971" rx="7.38286" fill="white"/>
<rect x="193.887" y="145.966" width="44.2971" height="44.2971" rx="7.38286" fill="white"/>
<rect x="241.875" y="145.966" width="44.2971" height="44.2971" rx="7.38286" fill="white"/>
<rect x="289.863" y="145.966" width="44.2971" height="44.2971" rx="7.38286" fill="white"/>
<rect x="337.852" y="145.966" width="44.2971" height="44.2971" rx="7.38286" fill="white"/>
<rect x="385.84" y="145.966" width="44.2971" height="44.2971" rx="7.38286" fill="white"/>
<rect x="433.828" y="145.966" width="44.2971" height="44.2971" rx="7.38286" fill="white"/>
<rect x="481.816" y="145.966" width="44.2971" height="44.2971" rx="7.38286" fill="white"/>
<rect x="529.805" y="145.966" width="44.2971" height="44.2971" rx="7.38286" fill="white"/>
<rect x="577.793" y="145.966" width="44.2971" height="44.2971" rx="7.38286" fill="white"/>
<rect x="625.781" y="145.966" width="44.2971" height="44.2971" rx="7.38286" fill="white"/>
<rect x="673.773" y="145.966" width="44.2971" height="44.2971" rx="7.38286" fill="white"/>
<rect x="1.92969" y="193.954" width="44.2971" height="44.2971" rx="7.38286" fill="white"/>
<rect x="49.9219" y="193.954" width="44.2971" height="44.2971" rx="7.38286" fill="white"/>
<rect x="97.9102" y="193.954" width="44.2971" height="44.2971" rx="7.38286" fill="white"/>
<rect x="145.898" y="193.954" width="44.2971" height="44.2971" rx="7.38286" fill="white"/>
<rect x="193.887" y="193.954" width="44.2971" height="44.2971" rx="7.38286" fill="white"/>
<rect x="241.875" y="193.954" width="44.2971" height="44.2971" rx="7.38286" fill="white"/>
<rect x="289.863" y="193.954" width="44.2971" height="44.2971" rx="7.38286" fill="white"/>
<rect x="337.852" y="193.954" width="44.2971" height="44.2971" rx="7.38286" fill="white"/>
<rect x="385.84" y="193.954" width="44.2971" height="44.2971" rx="7.38286" fill="white"/>
<rect x="433.828" y="193.954" width="44.2971" height="44.2971" rx="7.38286" fill="white"/>
<rect x="481.816" y="193.954" width="44.2971" height="44.2971" rx="7.38286" fill="white"/>
<rect x="529.805" y="193.954" width="44.2971" height="44.2971" rx="7.38286" fill="white"/>
<rect x="577.793" y="193.954" width="44.2971" height="44.2971" rx="7.38286" fill="white"/>
<rect x="625.781" y="193.954" width="44.2971" height="44.2971" rx="7.38286" fill="white"/>
<rect x="673.773" y="193.954" width="44.2971" height="44.2971" rx="7.38286" fill="white"/>
<rect x="1.92969" y="241.943" width="44.2971" height="44.2971" rx="7.38286" fill="white"/>
<rect x="49.9219" y="241.943" width="44.2971" height="44.2971" rx="7.38286" fill="white"/>
<rect x="97.9102" y="241.943" width="44.2971" height="44.2971" rx="7.38286" fill="white"/>
<rect x="145.898" y="241.943" width="44.2971" height="44.2971" rx="7.38286" fill="white"/>
<rect x="193.887" y="241.943" width="44.2971" height="44.2971" rx="7.38286" fill="white"/>
<rect x="241.875" y="241.943" width="44.2971" height="44.2971" rx="7.38286" fill="white"/>
<rect x="289.863" y="241.943" width="44.2971" height="44.2971" rx="7.38286" fill="white"/>
<rect x="337.852" y="241.943" width="44.2971" height="44.2971" rx="7.38286" fill="white"/>
<rect x="385.84" y="241.943" width="44.2971" height="44.2971" rx="7.38286" fill="white"/>
<rect x="433.828" y="241.943" width="44.2971" height="44.2971" rx="7.38286" fill="white"/>
<rect x="481.816" y="241.943" width="44.2971" height="44.2971" rx="7.38286" fill="white"/>
<rect x="529.805" y="241.943" width="44.2971" height="44.2971" rx="7.38286" fill="white"/>
<rect x="577.793" y="241.943" width="44.2971" height="44.2971" rx="7.38286" fill="white"/>
<rect x="625.781" y="241.943" width="44.2971" height="44.2971" rx="7.38286" fill="white"/>
<rect x="673.773" y="241.943" width="44.2971" height="44.2971" rx="7.38286" fill="white"/>
<rect x="1.92969" y="289.932" width="44.2971" height="44.2971" rx="7.38286" fill="white"/>
<rect x="49.9219" y="289.932" width="44.2971" height="44.2971" rx="7.38286" fill="white"/>
<rect x="97.9102" y="289.932" width="44.2971" height="44.2971" rx="7.38286" fill="white"/>
<rect x="145.898" y="289.932" width="44.2971" height="44.2971" rx="7.38286" fill="white"/>
<rect x="193.887" y="289.932" width="44.2971" height="44.2971" rx="7.38286" fill="white"/>
<rect x="241.875" y="289.932" width="44.2971" height="44.2971" rx="7.38286" fill="white"/>
<rect x="289.863" y="289.932" width="44.2971" height="44.2971" rx="7.38286" fill="white"/>
<rect x="337.852" y="289.932" width="44.2971" height="44.2971" rx="7.38286" fill="white"/>
<rect x="385.84" y="289.932" width="44.2971" height="44.2971" rx="7.38286" fill="white"/>
<rect x="433.828" y="289.932" width="44.2971" height="44.2971" rx="7.38286" fill="white"/>
<rect x="481.816" y="289.932" width="44.2971" height="44.2971" rx="7.38286" fill="white"/>
<rect x="529.805" y="289.932" width="44.2971" height="44.2971" rx="7.38286" fill="white"/>
<rect x="577.793" y="289.932" width="44.2971" height="44.2971" rx="7.38286" fill="white"/>
<rect x="625.781" y="289.932" width="44.2971" height="44.2971" rx="7.38286" fill="white"/>
<rect x="673.773" y="289.932" width="44.2971" height="44.2971" rx="7.38286" fill="white"/>
<rect x="1.92969" y="337.92" width="44.2971" height="44.2971" rx="7.38286" fill="white"/>
<rect x="49.9219" y="337.92" width="44.2971" height="44.2971" rx="7.38286" fill="white"/>
<rect x="97.9102" y="337.92" width="44.2971" height="44.2971" rx="7.38286" fill="white"/>
<rect x="145.898" y="337.92" width="44.2971" height="44.2971" rx="7.38286" fill="white"/>
<rect x="193.887" y="337.92" width="44.2971" height="44.2971" rx="7.38286" fill="white"/>
<rect x="241.875" y="337.92" width="44.2971" height="44.2971" rx="7.38286" fill="white"/>
<rect x="289.863" y="337.92" width="44.2971" height="44.2971" rx="7.38286" fill="white"/>
<rect x="337.852" y="337.92" width="44.2971" height="44.2971" rx="7.38286" fill="white"/>
<rect x="385.84" y="337.92" width="44.2971" height="44.2971" rx="7.38286" fill="white"/>
<rect x="433.828" y="337.92" width="44.2971" height="44.2971" rx="7.38286" fill="white"/>
<rect x="481.816" y="337.92" width="44.2971" height="44.2971" rx="7.38286" fill="white"/>
<rect x="529.805" y="337.92" width="44.2971" height="44.2971" rx="7.38286" fill="white"/>
<rect x="577.793" y="337.92" width="44.2971" height="44.2971" rx="7.38286" fill="white"/>
<rect x="625.781" y="337.92" width="44.2971" height="44.2971" rx="7.38286" fill="white"/>
<rect x="673.773" y="337.92" width="44.2971" height="44.2971" rx="7.38286" fill="white"/>
<rect x="1.92969" y="385.908" width="44.2971" height="44.2971" rx="7.38286" fill="white"/>
<rect x="49.9219" y="385.908" width="44.2971" height="44.2971" rx="7.38286" fill="white"/>
<rect x="97.9102" y="385.908" width="44.2971" height="44.2971" rx="7.38286" fill="white"/>
<rect x="145.898" y="385.908" width="44.2971" height="44.2971" rx="7.38286" fill="white"/>
<rect x="193.887" y="385.908" width="44.2971" height="44.2971" rx="7.38286" fill="white"/>
<rect x="241.875" y="385.908" width="44.2971" height="44.2971" rx="7.38286" fill="white"/>
<rect x="289.863" y="385.908" width="44.2971" height="44.2971" rx="7.38286" fill="white"/>
<rect x="337.852" y="385.908" width="44.2971" height="44.2971" rx="7.38286" fill="white"/>
<rect x="385.84" y="385.908" width="44.2971" height="44.2971" rx="7.38286" fill="white"/>
<rect x="433.828" y="385.908" width="44.2971" height="44.2971" rx="7.38286" fill="white"/>
<rect x="481.816" y="385.908" width="44.2971" height="44.2971" rx="7.38286" fill="white"/>
<rect x="529.805" y="385.908" width="44.2971" height="44.2971" rx="7.38286" fill="white"/>
<rect x="577.793" y="385.908" width="44.2971" height="44.2971" rx="7.38286" fill="white"/>
<rect x="625.781" y="385.908" width="44.2971" height="44.2971" rx="7.38286" fill="white"/>
<rect x="673.773" y="385.908" width="44.2971" height="44.2971" rx="7.38286" fill="white"/>
<rect x="1.92969" y="433.897" width="44.2971" height="44.2971" rx="7.38286" fill="white"/>
<rect x="49.9219" y="433.897" width="44.2971" height="44.2971" rx="7.38286" fill="white"/>
<rect x="97.9102" y="433.897" width="44.2971" height="44.2971" rx="7.38286" fill="white"/>
<rect x="145.898" y="433.897" width="44.2971" height="44.2971" rx="7.38286" fill="white"/>
<rect x="193.887" y="433.897" width="44.2971" height="44.2971" rx="7.38286" fill="white"/>
<rect x="241.875" y="433.897" width="44.2971" height="44.2971" rx="7.38286" fill="white"/>
<rect x="289.863" y="433.897" width="44.2971" height="44.2971" rx="7.38286" fill="white"/>
<rect x="337.852" y="433.897" width="44.2971" height="44.2971" rx="7.38286" fill="white"/>
<rect x="385.84" y="433.897" width="44.2971" height="44.2971" rx="7.38286" fill="white"/>
<rect x="433.828" y="433.897" width="44.2971" height="44.2971" rx="7.38286" fill="white"/>
<rect x="481.816" y="433.897" width="44.2971" height="44.2971" rx="7.38286" fill="white"/>
<rect x="529.805" y="433.897" width="44.2971" height="44.2971" rx="7.38286" fill="white"/>
<rect x="577.793" y="433.897" width="44.2971" height="44.2971" rx="7.38286" fill="white"/>
<rect x="625.781" y="433.897" width="44.2971" height="44.2971" rx="7.38286" fill="white"/>
<rect x="673.773" y="433.897" width="44.2971" height="44.2971" rx="7.38286" fill="white"/>
</mask>
<g mask="url(#mask0_2185_11915)">
<g filter="url(#filter0_f_2185_11915)">
<circle cx="360.5" cy="230.5" r="119.5" fill="#E5E9F0"/>
</g>
<g filter="url(#filter1_f_2185_11915)">
<ellipse cx="668" cy="379.5" rx="166" ry="122.5" fill="#E5E9F0"/>
</g>
<g filter="url(#filter2_f_2185_11915)">
<circle cx="594.5" cy="133.5" r="54.5" fill="#E5E9F0"/>
</g>
<g filter="url(#filter3_f_2185_11915)">
<ellipse cx="112" cy="-24.9999" rx="142" ry="100.492" fill="#E5E9F0"/>
</g>
<g filter="url(#filter4_f_2185_11915)">
<ellipse cx="104.5" cy="332.5" rx="49.5" ry="114.391" fill="#E5E9F0"/>
</g>
</g>
</g>
<rect y="310" width="720" height="150" fill="url(#paint0_linear_2185_11915)"/>
</g>
<defs>
<filter id="filter0_f_2185_11915" x="123.8" y="-6.2" width="473.4" height="473.4" filterUnits="userSpaceOnUse" color-interpolation-filters="sRGB">
<feFlood flood-opacity="0" result="BackgroundImageFix"/>
<feBlend mode="normal" in="SourceGraphic" in2="BackgroundImageFix" result="shape"/>
<feGaussianBlur stdDeviation="58.6" result="effect1_foregroundBlur_2185_11915"/>
</filter>
<filter id="filter1_f_2185_11915" x="425" y="180" width="486" height="399" filterUnits="userSpaceOnUse" color-interpolation-filters="sRGB">
<feFlood flood-opacity="0" result="BackgroundImageFix"/>
<feBlend mode="normal" in="SourceGraphic" in2="BackgroundImageFix" result="shape"/>
<feGaussianBlur stdDeviation="38.5" result="effect1_foregroundBlur_2185_11915"/>
</filter>
<filter id="filter2_f_2185_11915" x="495" y="34" width="199" height="199" filterUnits="userSpaceOnUse" color-interpolation-filters="sRGB">
<feFlood flood-opacity="0" result="BackgroundImageFix"/>
<feBlend mode="normal" in="SourceGraphic" in2="BackgroundImageFix" result="shape"/>
<feGaussianBlur stdDeviation="22.5" result="effect1_foregroundBlur_2185_11915"/>
</filter>
<filter id="filter3_f_2185_11915" x="-102.9" y="-198.392" width="429.8" height="346.784" filterUnits="userSpaceOnUse" color-interpolation-filters="sRGB">
<feFlood flood-opacity="0" result="BackgroundImageFix"/>
<feBlend mode="normal" in="SourceGraphic" in2="BackgroundImageFix" result="shape"/>
<feGaussianBlur stdDeviation="36.45" result="effect1_foregroundBlur_2185_11915"/>
</filter>
<filter id="filter4_f_2185_11915" x="-16.2966" y="146.813" width="241.593" height="371.375" filterUnits="userSpaceOnUse" color-interpolation-filters="sRGB">
<feFlood flood-opacity="0" result="BackgroundImageFix"/>
<feBlend mode="normal" in="SourceGraphic" in2="BackgroundImageFix" result="shape"/>
<feGaussianBlur stdDeviation="35.6483" result="effect1_foregroundBlur_2185_11915"/>
</filter>
<linearGradient id="paint0_linear_2185_11915" x1="360" y1="460" x2="360" y2="310" gradientUnits="userSpaceOnUse">
<stop stop-color="white"/>
<stop offset="1" stop-color="white" stop-opacity="0"/>
</linearGradient>
<clipPath id="clip0_2185_11915">
<rect width="720" height="460" fill="white"/>
</clipPath>
</defs>
</svg>
