<svg width="72" height="72" viewBox="0 0 72 72" fill="none" xmlns="http://www.w3.org/2000/svg">
<path fill-rule="evenodd" clip-rule="evenodd" d="M44.7648 30.2736H42.6457L42.649 19.7172C42.649 10.2559 34.9048 2.51172 25.4435 2.51172C15.9822 2.51172 8.23797 10.2559 8.23797 19.7172V30.2736H6.11883C2.75366 30.2736 0 33.0272 0 36.3924V63.3665C0 66.7316 2.75366 69.4853 6.11883 69.4853H44.7644C48.1296 69.4853 50.8832 66.7316 50.8832 63.3665L50.8865 36.3924C50.8865 33.0272 48.1333 30.2736 44.7648 30.2736ZM15.8811 19.7172C15.8811 14.4585 20.1849 10.1546 25.4437 10.1546C30.7026 10.1546 35.0063 14.4584 35.0063 19.7172V30.2736H15.8811V19.7172ZM28.0206 49.4381V57.3491C28.0206 58.7651 26.8662 59.9261 25.4436 59.9261C24.0276 59.9261 22.8666 58.7717 22.8666 57.3491V49.4381C21.3263 48.5519 20.2961 46.884 20.2961 44.9839C20.2961 42.1388 22.5985 39.8364 25.4436 39.8364C28.2888 39.8364 30.5911 42.1388 30.5911 44.9839C30.5911 46.884 29.5544 48.5486 28.0206 49.4381Z" fill="white"/>
</svg>
