<svg width="72" height="72" viewBox="0 0 72 72" fill="none" xmlns="http://www.w3.org/2000/svg">
<g clip-path="url(#clip0_2185_11818)">
<path d="M27.0954 6.04296C28.7849 3.31902 32.7477 3.319 34.4372 6.04296L36.5182 9.39843C37.6289 11.1892 39.8698 11.9168 41.821 11.1211L45.4772 9.62988C48.4451 8.41926 51.6517 10.7487 51.4177 13.9453L51.1286 17.8838C50.9747 19.9853 52.3597 21.8915 54.4059 22.3945L58.2409 23.3369C61.3533 24.1021 62.5776 27.8708 60.5094 30.3193L57.9616 33.3359C56.6016 34.9457 56.6016 37.3023 57.9616 38.9121L60.5094 41.9277C62.5779 44.3762 61.3534 48.1459 58.2409 48.9111L54.4059 49.8535C52.3597 50.3566 50.9746 52.2627 51.1286 54.3643L51.4177 58.3018C51.6519 61.4986 48.4452 63.8288 45.4772 62.6182L41.821 61.1269C39.8698 60.3312 37.629 61.0588 36.5182 62.8496L34.4372 66.2051C32.7476 68.9287 28.785 68.9287 27.0954 66.2051L25.0143 62.8496C23.9036 61.0588 21.6619 60.331 19.7106 61.1269L16.0553 62.6182C13.0874 63.8288 9.88066 61.4986 10.1149 58.3018L10.404 54.3643C10.558 52.2627 9.17283 50.3567 7.12663 49.8535L3.29167 48.9111C0.179056 48.146 -1.0454 44.3763 1.02312 41.9277L3.57097 38.9121C4.93092 37.3023 4.93092 34.9457 3.57097 33.3359L1.02312 30.3193C-1.04514 27.8708 0.179194 24.1021 3.29167 23.3369L7.12663 22.3945C9.17277 21.8914 10.5578 19.9853 10.404 17.8838L10.1149 13.9453C9.8809 10.7487 13.0875 8.41926 16.0553 9.62988L19.7106 11.1211C21.6619 11.917 23.9036 11.1893 25.0143 9.39843L27.0954 6.04296ZM40.0856 26.7637C39.7965 26.7637 39.5099 26.8245 39.2428 26.9424C38.9757 27.0603 38.7324 27.2333 38.528 27.4512L26.9294 39.8379L23.0046 35.6309C22.8002 35.413 22.5577 35.24 22.2907 35.1221C22.0236 35.0041 21.737 34.9434 21.4479 34.9434C21.159 34.9434 20.873 35.0043 20.6061 35.1221C20.339 35.24 20.0957 35.4129 19.8913 35.6309C19.6871 35.8486 19.5253 36.1072 19.4147 36.3916C19.3041 36.6763 19.2468 36.9819 19.2468 37.29C19.2468 37.5982 19.3041 37.9038 19.4147 38.1885C19.5253 38.4729 19.6871 38.7315 19.8913 38.9492L25.3727 44.792C25.5766 45.011 25.8194 45.1851 26.0866 45.3037C26.3537 45.4223 26.6401 45.4833 26.9294 45.4834C27.2188 45.4834 27.5059 45.4224 27.7731 45.3037C28.0402 45.1851 28.2823 45.0109 28.486 44.792L41.6423 30.7695C41.8466 30.5517 42.0082 30.2924 42.1188 30.0078C42.2294 29.7232 42.2868 29.4184 42.2868 29.1103C42.2868 28.8022 42.2295 28.4966 42.1188 28.2119C42.0082 27.9275 41.8465 27.6689 41.6423 27.4512C41.4378 27.2333 41.1945 27.0603 40.9274 26.9424C40.6605 26.8245 40.3745 26.7637 40.0856 26.7637Z" fill="white"/>
</g>
<defs>
<clipPath id="clip0_2185_11818">
<rect width="72" height="72" fill="white"/>
</clipPath>
</defs>
</svg>
