<svg width="280" height="133" viewBox="0 0 280 133" fill="none" xmlns="http://www.w3.org/2000/svg">
<g clip-path="url(#clip0_2185_11779)">
<rect x="0.0195312" y="0.0205078" width="279.959" height="172.669" rx="6.1447" fill="url(#paint0_linear_2185_11779)"/>
<rect x="149.008" y="72.1895" width="62.314" height="10.7438" rx="5.3719" fill="#E6EFFC"/>
<rect x="149.008" y="89.3799" width="47.2727" height="10.7438" rx="5.3719" fill="#E6EFFC"/>
<rect x="149.008" y="106.569" width="79.5041" height="10.7438" rx="5.3719" fill="#E6EFFC"/>
<rect x="23.1406" y="146.864" width="100.584" height="100.584" rx="11.6749" transform="rotate(-90 23.1406 146.864)" fill="#D2E5FF"/>
<path d="M87.5781 101.968C96.6385 101.968 101.723 109.596 101.723 117.881C101.722 120.809 99.3471 123.184 96.4189 123.185H50.4482C47.5202 123.184 45.1447 120.809 45.1445 117.881C45.1445 109.596 50.2287 101.968 59.2891 101.968C64.2348 101.968 66.3614 103.736 73.4336 103.736C80.5058 103.736 82.6321 101.968 87.5781 101.968ZM73.4346 66.6064C81.6861 66.6066 88.365 73.6365 88.3652 82.3223C88.3652 91.0082 81.6862 98.0389 73.4346 98.0391C65.1828 98.0391 58.5039 91.0083 58.5039 82.3223C58.5041 73.6364 65.183 66.6064 73.4346 66.6064Z" fill="white"/>
</g>
<defs>
<linearGradient id="paint0_linear_2185_11779" x1="139.999" y1="0.0205078" x2="139.999" y2="172.69" gradientUnits="userSpaceOnUse">
<stop stop-color="#DFECFF"/>
<stop offset="1" stop-color="#9AB5DB"/>
</linearGradient>
<clipPath id="clip0_2185_11779">
<rect width="280" height="172.397" rx="8.59504" fill="white"/>
</clipPath>
</defs>
</svg>
