<svg width="120" height="40" viewBox="0 0 120 40" fill="none" xmlns="http://www.w3.org/2000/svg">
<g clip-path="url(#clip0_2170_6602)">
<path d="M98.2317 8L93.2219 10.0998V13.8715H90.5391V17.5337H93.2219V31.393H98.2317V17.5303H100.851V13.8681H98.2317V8Z" fill="white"/>
<path d="M21.4531 31.393H26.4663V8L21.4531 10.0998V31.393Z" fill="white"/>
<path d="M4.96278 20.8445L5.01987 20.5957C5.44966 18.6617 7.17555 17.3647 9.3111 17.3647C11.4466 17.3647 13.2128 18.6319 13.6661 20.5923L13.7232 20.8445H4.96278ZM9.30774 13.2547C4.17707 13.2514 0 17.4775 0 22.6722C0 25.1535 0.973753 27.4855 2.75001 29.2403C4.52292 30.9951 6.88343 31.9637 9.39504 31.9637C13.055 31.9637 16.2247 29.8042 17.9473 26.1719H12.8133C11.8664 27.3462 10.8456 27.8504 9.40847 27.8504C7.05468 27.8504 5.26163 26.4174 4.95271 24.2811L4.91913 24.0456H18.592C18.6625 23.6442 18.6927 23.2395 18.686 22.8348C18.686 17.368 14.6567 13.248 9.3111 13.248" fill="white"/>
<path d="M106.28 20.8445L106.337 20.5957C106.767 18.6617 108.493 17.3647 110.628 17.3647C112.764 17.3647 114.53 18.6319 114.983 20.5923L115.04 20.8445H106.28ZM110.628 13.2547C105.494 13.2547 101.32 17.4808 101.32 22.6756C101.32 25.1568 102.294 27.4888 104.07 29.2436C105.843 30.9984 108.204 31.9671 110.715 31.9671C114.372 31.9671 117.545 29.8075 119.268 26.1752H114.134C113.187 27.3495 112.166 27.8537 110.729 27.8537C108.372 27.8537 106.582 26.4207 106.27 24.2844L106.236 24.0489H119.909C119.979 23.6508 120.01 23.2428 120.003 22.8348C120.003 17.368 115.974 13.248 110.628 13.248" fill="white"/>
<path d="M34.1347 20.8445L34.1917 20.5957C34.6215 18.6617 36.3474 17.3647 38.483 17.3647C40.6185 17.3647 42.3847 18.6319 42.838 20.5923L42.8951 20.8445H34.1347ZM38.4796 13.2547C33.3489 13.2547 29.1719 17.4808 29.1719 22.6756C29.1719 25.1568 30.1456 27.4888 31.9219 29.2436C33.6948 30.9984 36.0553 31.9671 38.5669 31.9671C42.2235 31.9671 45.3966 29.8075 47.1158 26.1752H41.9818C41.0382 27.3495 40.0141 27.8537 38.577 27.8537C36.2232 27.8537 34.4301 26.4207 34.1212 24.2844L34.0877 24.0489H47.7605C47.831 23.6508 47.8612 23.2428 47.8579 22.8348C47.8579 17.368 43.8285 13.248 38.483 13.248" fill="white"/>
<path d="M78.2552 17.8453C79.5379 17.8453 80.7467 18.3396 81.6533 19.2352C82.5632 20.1309 83.0669 21.3251 83.0669 22.5956L82.8587 22.6055H83.0669C83.0971 23.8528 82.6304 25.0403 81.7574 25.9492C80.881 26.8548 79.7024 27.3723 78.4365 27.4022H78.3157C75.6966 27.3889 73.5812 25.2725 73.5946 22.6884C73.5946 19.9683 75.6395 17.8486 78.2485 17.8486H78.2552V17.8453ZM68.5815 22.6088C68.5815 28.049 72.3187 31.9998 77.4661 31.9998C79.8199 31.9998 81.8883 31.0213 82.6069 29.5617L82.664 29.4456H83.0669V31.3828H88.0801V13.8647H83.0669V15.7721H82.6774L82.617 15.6759C81.6533 14.1599 79.7259 13.251 77.4628 13.251C72.4832 13.251 68.5781 17.361 68.5781 22.6088" fill="white"/>
<path d="M54.0742 28.6132L48 13.7588H54.269L57.207 20.8676L54.0742 28.6132Z" fill="#00FF93"/>
<path d="M61.4916 31.3864H55.2227L62.4318 13.7588H68.7007L61.4916 31.3864Z" fill="#00AC93"/>
<path d="M61.4916 31.3826H55.2227L62.4318 13.7583L70.0841 10.5439L61.4916 31.3826Z" fill="#00AC93"/>
</g>
<defs>
<clipPath id="clip0_2170_6602">
<rect width="120" height="24" fill="white" transform="translate(0 8)"/>
</clipPath>
</defs>
</svg>
