<svg width="24" height="24" viewBox="0 0 24 24" fill="none" xmlns="http://www.w3.org/2000/svg">
<path d="M19 3C20.6569 3 22 4.34315 22 6V7.26953C22.5974 7.61531 23 8.26002 23 9V15C23 15.7398 22.5972 16.3837 22 16.7295V18C22 19.6569 20.6569 21 19 21H5C3.34315 21 2 19.6569 2 18V6C2 4.34315 3.34315 3 5 3H19ZM5 5C4.44772 5 4 5.44772 4 6V18C4 18.5523 4.44772 19 5 19H19C19.5523 19 20 18.5523 20 18V17H14C12.9643 17 12.113 16.2128 12.0107 15.2041L12 15V9C12 7.89543 12.8954 7 14 7H20V6C20 5.44772 19.5523 5 19 5H5ZM14 15H21V9H14V15ZM17.5 10.5C18.3284 10.5 19 11.1716 19 12C19 12.8284 18.3284 13.5 17.5 13.5C16.6716 13.5 16 12.8284 16 12C16 11.1716 16.6716 10.5 17.5 10.5Z" fill="white"/>
</svg>
