<svg width="24" height="24" viewBox="0 0 24 24" fill="none" xmlns="http://www.w3.org/2000/svg">
<path d="M7.29297 17.707C7.68349 18.0976 8.31651 18.0976 8.70703 17.707C9.09756 17.3165 9.09756 16.6835 8.70703 16.293L5.41406 13H21C21.5523 13 22 12.5523 22 12C22 11.4477 21.5523 11 21 11H5.41406L8.70703 7.70703C9.09756 7.31651 9.09756 6.68349 8.70703 6.29297C8.31651 5.90244 7.68349 5.90244 7.29297 6.29297L2.29297 11.293C2.26536 11.3206 2.2405 11.35 2.2168 11.3799C2.18065 11.4255 2.14798 11.4739 2.12012 11.5254C2.11269 11.5391 2.10634 11.5534 2.09961 11.5674C2.0778 11.6127 2.05783 11.6592 2.04297 11.708C2.0303 11.7497 2.02176 11.7923 2.01465 11.835C2.00571 11.8887 2 11.9437 2 12C2 12.0797 2.00973 12.1571 2.02734 12.2314C2.03221 12.252 2.03678 12.2727 2.04297 12.293C2.05787 12.3417 2.07777 12.3883 2.09961 12.4336C2.11877 12.4734 2.1403 12.5123 2.16504 12.5498C2.20242 12.6065 2.24516 12.6592 2.29297 12.707L7.29297 17.707Z" fill="#3F68FF"/>
</svg>
