<svg width="36" height="36" viewBox="0 0 36 36" fill="none" xmlns="http://www.w3.org/2000/svg">
<path d="M18 0C27.9411 0 36 8.05887 36 18C36 27.9411 27.9411 36 18 36C8.05887 36 0 27.9411 0 18C0 8.05887 8.05887 0 18 0ZM18 3C9.71573 3 3 9.71573 3 18C3 26.2843 9.71573 33 18 33C26.2843 33 33 26.2843 33 18C33 9.71573 26.2843 3 18 3ZM27.6211 12.9834L26.5693 14.0518L16.7285 24.0518C16.4422 24.3427 16.0488 24.5049 15.6406 24.5C15.2327 24.495 14.8446 24.3238 14.5654 24.0264L9.40625 18.5264L8.37988 17.4326L10.5674 15.3799L11.5938 16.4736L15.6846 20.835L24.4307 11.9482L25.4834 10.8789L27.6211 12.9834Z" fill="#0A15A9"/>
</svg>
