<svg width="24" height="24" viewBox="0 0 24 24" fill="none" xmlns="http://www.w3.org/2000/svg">
<path d="M20 3C21.6569 3 23 4.34315 23 6V18L22.9961 18.1543C22.9184 19.6883 21.6883 20.9184 20.1543 20.9961L20 21H4L3.8457 20.9961C2.31166 20.9184 1.08163 19.6883 1.00391 18.1543L1 18V6C1 4.34315 2.34315 3 4 3H20ZM4 5C3.44772 5 3 5.44772 3 6V18C3 18.5523 3.44772 19 4 19H20C20.5523 19 21 18.5523 21 18V6C21 5.44772 20.5523 5 20 5H4ZM8 14C8.55228 14 9 14.4477 9 15C9 15.5523 8.55228 16 8 16H6C5.44772 16 5 15.5523 5 15C5 14.4477 5.44772 14 6 14H8ZM13 14C13.5523 14 14 14.4477 14 15C14 15.5523 13.5523 16 13 16H11C10.4477 16 10 15.5523 10 15C10 14.4477 10.4477 14 11 14H13ZM18 14C18.5523 14 19 14.4477 19 15C19 15.5523 18.5523 16 18 16H16C15.4477 16 15 15.5523 15 15C15 14.4477 15.4477 14 16 14H18ZM18 7C18.5523 7 19 7.44772 19 8V10C19 10.5523 18.5523 11 18 11H15C14.4477 11 14 10.5523 14 10V8C14 7.44772 14.4477 7 15 7H18Z" fill="white"/>
</svg>
