<svg width="24" height="24" viewBox="0 0 24 24" fill="none" xmlns="http://www.w3.org/2000/svg">
<path d="M9.80469 3.15234C10.0961 3.09983 10.3968 3.1793 10.624 3.36914C10.8512 3.55904 10.9823 3.84064 10.9824 4.13672V12.4854L17.1797 18.6826C17.3867 18.8897 17.4929 19.1779 17.4697 19.4697C17.4463 19.7615 17.2957 20.0286 17.0586 20.2002C15.4965 21.3296 13.5765 22 11.5 22C6.41746 22 2.26751 18.0084 2.0127 12.9893L2 12.5C2.00023 7.83133 5.36737 3.95239 9.80469 3.15234ZM8.98242 5.43555C6.07894 6.46985 4.0002 9.2423 4 12.5L4.00977 12.8857C4.21071 16.8485 7.4874 20 11.5 20C12.7121 20 13.8544 19.7098 14.8672 19.1982L9.56836 13.8994C9.19351 13.5244 8.98266 13.0152 8.98242 12.4854V5.43555ZM22.0996 13C22.5966 13 23.0047 13.4039 22.9551 13.8984C22.8674 14.7721 22.6517 15.6301 22.3145 16.4443C21.9772 17.2584 21.5235 18.0176 20.9678 18.6973C20.6531 19.0819 20.079 19.079 19.7275 18.7275L14 13H22.0996ZM14.3936 2.00977C15.3097 2.05489 16.2123 2.25762 17.0615 2.60938C18.0321 3.01141 18.9144 3.59995 19.6572 4.34277C20.4 5.08559 20.9886 5.96795 21.3906 6.93848C21.7927 7.90908 22 8.94943 22 10C22 10.2652 21.8946 10.5195 21.707 10.707C21.5195 10.8946 21.2652 11 21 11H14C13.4477 11 13 10.5523 13 10V3C13 2.73478 13.1054 2.48051 13.293 2.29297C13.4805 2.10543 13.7348 2 14 2L14.3936 2.00977ZM15 9H19.9141C19.8391 8.55651 19.7159 8.12161 19.543 7.7041C19.2414 6.97615 18.7993 6.31496 18.2422 5.75781C17.685 5.20066 17.0239 4.75856 16.2959 4.45703C15.8783 4.28408 15.4435 4.15995 15 4.08496V9Z" fill="white"/>
</svg>
