<svg width="24" height="24" viewBox="0 0 24 24" fill="none" xmlns="http://www.w3.org/2000/svg">
<path d="M12 1C18.0751 1 23 5.92487 23 12C23 18.0751 18.0751 23 12 23C5.92487 23 1 18.0751 1 12C1 5.92487 5.92487 1 12 1ZM10.0146 13C10.0849 15.2838 10.3928 17.304 10.8369 18.7842C11.0927 19.6366 11.3768 20.254 11.6475 20.6357C11.8321 20.8961 11.9549 20.97 12 20.9912C12.0451 20.97 12.1679 20.8961 12.3525 20.6357C12.6232 20.254 12.9073 19.6366 13.1631 18.7842C13.6072 17.304 13.9151 15.2838 13.9854 13H10.0146ZM3.05664 13C3.45593 16.6113 5.99066 19.5774 9.37109 20.6084C9.2047 20.2223 9.0541 19.8024 8.9209 19.3584C8.41175 17.6612 8.08521 15.4402 8.01465 13H3.05664ZM15.9854 13C15.9148 15.4402 15.5882 17.6612 15.0791 19.3584C14.9459 19.8025 14.7944 20.2222 14.6279 20.6084C18.0088 19.5776 20.544 16.6116 20.9434 13H15.9854ZM9.37109 3.39062C5.99052 4.4216 3.45594 7.38859 3.05664 11H8.01465C8.08521 8.55978 8.41175 6.33875 8.9209 4.6416C9.05419 4.19729 9.20455 3.77698 9.37109 3.39062ZM12 3.00781C11.9552 3.0288 11.8327 3.10316 11.6475 3.36426C11.3768 3.74596 11.0927 4.36338 10.8369 5.21582C10.3928 6.69604 10.0849 8.71616 10.0146 11H13.9854C13.9151 8.71616 13.6072 6.69604 13.1631 5.21582C12.9073 4.36338 12.6232 3.74596 12.3525 3.36426C12.1673 3.10316 12.0448 3.0288 12 3.00781ZM14.6279 3.39062C14.7945 3.77708 14.9458 4.19715 15.0791 4.6416C15.5882 6.33875 15.9148 8.55978 15.9854 11H20.9434C20.544 7.38827 18.0089 4.42135 14.6279 3.39062Z" fill="white"/>
</svg>
