<svg width="24" height="24" viewBox="0 0 24 24" fill="none" xmlns="http://www.w3.org/2000/svg">
<path d="M10.7412 2.73242C11.475 2.13841 12.525 2.13841 13.2588 2.73242L23.1289 10.7227C23.5579 11.0701 23.6246 11.6997 23.2773 12.1289C22.93 12.558 22.3003 12.6244 21.8711 12.2773L21 11.5713V20C20.9999 21.1044 20.1044 21.9999 19 22H16C14.8955 22 14.0001 21.1044 14 20V16H10V20C9.99986 21.1044 9.10439 21.9999 8 22H5C3.89552 22 3.00014 21.1044 3 20V11.5713L2.12891 12.2773C1.69974 12.6246 1.07013 12.5579 0.722656 12.1289C0.375368 11.6997 0.441917 11.0701 0.871094 10.7227L10.7412 2.73242ZM5 9.95215V20H8V16C8 14.8954 8.89543 14 10 14H14C15.1045 14.0001 16 14.8955 16 16V20H19V9.95215L12 4.28613L5 9.95215Z" fill="white"/>
</svg>
