<svg preserveAspectRatio="none" width="100%" height="100%" overflow="visible" style="display: block;" viewBox="0 0 13.334 13.334" fill="none" xmlns="http://www.w3.org/2000/svg">
<path id="Icon" d="M6.66699 0C10.3487 0.000175935 13.334 2.9852 13.334 6.66699C13.3338 10.3486 10.3486 13.3338 6.66699 13.334C2.9852 13.334 0.000175938 10.3487 0 6.66699C1.28849e-07 2.98509 2.98509 1.28845e-07 6.66699 0ZM6.66699 1.33398C3.72147 1.33398 1.33398 3.72147 1.33398 6.66699C1.33416 9.61236 3.72158 12 6.66699 12C9.61225 11.9998 11.9998 9.61225 12 6.66699C12 3.72158 9.61236 1.33416 6.66699 1.33398ZM6.83301 5.33301C7.10904 5.33301 7.33283 5.55702 7.33301 5.83301V10.167C7.33283 10.443 7.10904 10.667 6.83301 10.667H6.5C6.22397 10.667 6.00018 10.443 6 10.167V5.83301C6.00018 5.55702 6.22397 5.33301 6.5 5.33301H6.83301ZM6.66699 2.66699C7.12708 2.66717 7.5 3.03987 7.5 3.5C7.5 3.96013 7.12708 4.33283 6.66699 4.33301C6.20675 4.33301 5.83301 3.96024 5.83301 3.5C5.83301 3.03976 6.20675 2.66699 6.66699 2.66699Z" fill="var(--fill-0, #9BA3B3)"/>
</svg>
