<svg width="24" height="24" viewBox="0 0 24 24" fill="none" xmlns="http://www.w3.org/2000/svg">
<path d="M20.8008 3.75C22.0158 3.75004 23.001 4.73519 23.001 5.9502V7.7959L23.0625 7.87988L23.001 7.9248V18.0498C23.001 19.2648 22.0158 20.25 20.8008 20.25H3.20117L2.97559 20.2383C1.86646 20.1254 1.00098 19.1887 1.00098 18.0498V7.9248L0.939453 7.87988L1.00098 7.7959V5.9502C1.00098 4.81127 1.86646 3.8746 2.97559 3.76172L3.20117 3.75H20.8008ZM15.5488 13.416C13.439 14.9705 10.563 14.9706 8.45312 13.416L3.06348 9.44434V18.0498C3.06348 18.1257 3.12525 18.1875 3.20117 18.1875H20.8008C20.8767 18.1875 20.9385 18.1257 20.9385 18.0498V9.44434L15.5488 13.416ZM3.20117 5.8125C3.12525 5.8125 3.06348 5.87427 3.06348 5.9502V6.88379L9.67578 11.7559C11.058 12.7744 12.9429 12.7742 14.3252 11.7559L20.9385 6.88281V5.9502C20.9385 5.8743 20.8767 5.81254 20.8008 5.8125H3.20117Z" fill="white"/>
</svg>
