<svg width="24" height="24" viewBox="0 0 24 24" fill="none" xmlns="http://www.w3.org/2000/svg">
<path d="M9 13C10.1046 13 11 13.8954 11 15V20C11 21.0357 10.2128 21.887 9.2041 21.9893L9 22H4L3.7959 21.9893C2.85435 21.8938 2.1062 21.1457 2.01074 20.2041L2 20V15C2 13.8954 2.89543 13 4 13H9ZM17.5 13C19.9853 13 22 15.0147 22 17.5C22 19.9853 19.9853 22 17.5 22C15.0147 22 13 19.9853 13 17.5C13 15.0147 15.0147 13 17.5 13ZM17.5 15C16.1193 15 15 16.1193 15 17.5C15 18.8807 16.1193 20 17.5 20C18.8807 20 20 18.8807 20 17.5C20 16.1193 18.8807 15 17.5 15ZM4 20H9V15H4V20ZM9 2C10.1046 2 11 2.89543 11 4V9C11 10.0357 10.2128 10.887 9.2041 10.9893L9 11H4L3.7959 10.9893C2.85435 10.8938 2.1062 10.1457 2.01074 9.2041L2 9V4C2 2.89543 2.89543 2 4 2H9ZM20 2C21.1046 2 22 2.89543 22 4V9C22 10.0357 21.2128 10.887 20.2041 10.9893L20 11H15L14.7959 10.9893C13.8543 10.8938 13.1062 10.1457 13.0107 9.2041L13 9V4C13 2.89543 13.8954 2 15 2H20ZM4 9H9V4H4V9ZM15 9H20V4H15V9Z" fill="#0F1621"/>
</svg>
