<svg width="72" height="72" viewBox="0 0 72 72" fill="none" xmlns="http://www.w3.org/2000/svg">
<path d="M27.7402 4.82628C28.4328 4.41723 29.1924 4.21544 29.9717 4.33116C30.7392 4.44519 31.3403 4.83999 31.7812 5.27745C32.6149 6.1047 33.0974 7.3027 33.3691 8.19053C33.4495 8.4532 33.5189 8.7179 33.5781 8.97178L42.5049 9.0001C43.0419 9.00185 43.5377 9.29039 43.8037 9.75694C44.0695 10.2235 44.065 10.797 43.793 11.2599L39.2666 18.9532C40.3212 19.7767 40.9999 21.0594 41 22.5011L40.9941 22.7325C40.908 24.4323 39.8775 25.8812 38.418 26.5704C41.4407 27.9536 44.1197 29.9488 46.376 32.2999C46.3341 32.316 46.2926 32.3332 46.251 32.3497C47.5473 31.835 48.9639 31.549 50.4492 31.5489C56.6161 31.5489 61.6161 36.4369 61.6162 42.4659L61.6016 43.0274C61.4934 45.1139 60.7834 47.0442 59.6416 48.6603L66.5488 55.4132C67.141 55.9923 67.1513 56.942 66.5723 57.5343C65.9931 58.1265 65.0435 58.1368 64.4512 57.5577L57.5928 50.8517C56.6611 51.6109 55.6021 52.2239 54.4502 52.6564C54.0647 58.1529 51.3015 62.1195 46.9375 64.6837C42.3307 67.3904 36.0197 68.5011 29 68.5011C21.9803 68.5011 15.6693 67.3904 11.0625 64.6837C6.34989 61.9147 3.5 57.5102 3.5 51.3097C3.50012 45.2598 6.13934 38.5938 10.583 33.4415C13.0385 30.5946 16.08 28.1727 19.5811 26.5704C18.1219 25.8811 17.092 24.432 17.0059 22.7325L17 22.5011C17.0001 20.8472 17.8922 19.4012 19.2217 18.6192L16.1133 11.0704C15.9235 10.609 15.9753 10.0833 16.252 9.66807C16.529 9.25278 16.9949 9.00216 17.4941 9.0001L24.2197 8.97178C25.4304 6.88158 26.5798 5.51174 27.7402 4.82628ZM29 27.5011C22.4868 27.5011 16.8751 30.739 12.8545 35.4005C8.81928 40.0792 6.50012 46.0677 6.5 51.3097C6.5 56.4012 8.74669 59.8432 12.582 62.0968C16.5234 64.4126 22.2127 65.5011 29 65.5011C35.7873 65.5011 41.4766 64.4126 45.418 62.0968C48.7189 60.1572 50.8393 57.337 51.3672 53.3429C51.0644 53.367 50.7584 53.3819 50.4492 53.3819C44.4751 53.3818 39.597 48.7953 39.2979 43.0274L39.2832 42.4659C39.2833 38.9214 41.0122 35.7727 43.6895 33.7784C43.6762 33.7883 43.6626 33.7978 43.6494 33.8077C39.7814 30.0183 34.7415 27.5011 29 27.5011ZM30.459 36.4776C30.8766 36.4776 31.2148 36.8175 31.2148 37.2364V38.7804C32.2815 38.8353 33.3189 39.2084 34.1787 39.8556C34.5472 40.1333 34.5668 40.6875 34.2334 41.0069L33.123 42.0694C32.8613 42.3197 32.4712 42.3312 32.165 42.1388C31.8004 41.9085 31.3849 41.7862 30.9541 41.7862H28.2979C27.6837 41.7863 27.1826 42.3472 27.1826 43.0362C27.1826 43.6002 27.5242 44.0964 28.0117 44.2433L32.2646 45.5226C34.0221 46.0514 35.2498 47.7421 35.25 49.6349C35.25 51.96 33.4497 53.8476 31.2168 53.9073V55.4357C31.2166 55.8545 30.8785 56.1934 30.4609 56.1935H28.9492C28.5317 56.1935 28.1935 55.8545 28.1934 55.4357V53.8917C27.1265 53.8367 26.0884 53.4629 25.2285 52.8155C24.8602 52.5379 24.8416 51.9846 25.1748 51.6651L26.2852 50.6017C26.5469 50.3516 26.9361 50.3409 27.2422 50.5333C27.6069 50.7636 28.0232 50.8858 28.4541 50.8858H31.1094C31.7234 50.8857 32.2236 50.3239 32.2236 49.6349C32.2235 49.0711 31.8829 48.5758 31.3955 48.4288L27.1426 47.1485C25.386 46.6196 24.1582 44.9291 24.1582 43.0362C24.1582 40.712 25.9585 38.8235 28.1914 38.7638V37.2364C28.1914 36.8175 28.5296 36.4776 28.9473 36.4776H30.459ZM50.4492 34.5489C45.875 34.5491 42.2833 38.1574 42.2832 42.4659C42.2834 46.7743 45.8751 50.3818 50.4492 50.3819C55.0235 50.3819 58.616 46.7744 58.6162 42.4659C58.6161 38.1574 55.0236 34.5489 50.4492 34.5489ZM52.7988 38.0714C53.3911 37.4925 54.3408 37.5028 54.9199 38.0948C55.4989 38.6871 55.4885 39.6368 54.8965 40.2159L52.5947 42.4659L54.8965 44.7159C55.4887 45.295 55.4989 46.2447 54.9199 46.837C54.3408 47.4293 53.3912 47.4405 52.7988 46.8614L50.4492 44.5636L48.0996 46.8614C47.5073 47.4405 46.5576 47.4293 45.9785 46.837C45.3995 46.2447 45.4097 45.295 46.002 44.7159L48.3027 42.4659L46.002 40.2159C45.4099 39.6368 45.3995 38.6871 45.9785 38.0948C46.5576 37.5028 47.5074 37.4925 48.0996 38.0714L50.4492 40.3683L52.7988 38.0714ZM44.0918 33.4923C44.0186 33.542 43.9459 33.5923 43.874 33.6437C43.9459 33.5923 44.0186 33.542 44.0918 33.4923ZM45.0186 32.9269C44.9489 32.9649 44.8803 33.0047 44.8115 33.044C44.8803 33.0046 44.9489 32.9649 45.0186 32.9269ZM45.4658 32.6964C45.3851 32.7358 45.3051 32.7763 45.2256 32.8175C45.3051 32.7762 45.3851 32.7358 45.4658 32.6964ZM21.5 21.0011C20.6717 21.0011 20.0002 21.6728 20 22.5011C20 23.3295 20.6716 24.0011 21.5 24.0011H36.5C37.3284 24.0011 38 23.3295 38 22.5011C37.9998 21.6728 37.3283 21.0011 36.5 21.0011H21.5ZM22.3047 18.0011H25.8389L31.9219 11.9171C31.2767 11.7494 30.8 11.1651 30.7998 10.4679C30.7987 10.4581 30.789 10.3132 30.7373 10.0333C30.7157 9.91615 30.6875 9.78706 30.6553 9.64952L22.3047 18.0011ZM26.5459 18.0011H30.0811L36.1025 11.9786L32.5791 11.9669L26.5459 18.0011ZM35.0312 18.0011H36.3477L38.2275 14.8038L35.0312 18.0011ZM30.7881 18.0011H34.3242L39.2383 13.087L39.8828 11.9913L36.8076 11.9806L30.7881 18.0011ZM29.5312 7.29893C29.5035 7.30125 29.4197 7.31832 29.2656 7.40928C28.7089 7.73826 27.7452 8.73474 26.4189 11.1827C26.1578 11.6647 25.6546 11.9665 25.1064 11.9689L24.0879 11.9728L21 15.0607L22.0312 17.5665L30.5059 9.09092C30.5036 9.08357 30.5023 9.07583 30.5 9.06846C30.2655 8.30231 29.9601 7.69529 29.6689 7.40635C29.5476 7.28605 29.5019 7.29456 29.5312 7.29893ZM19.7363 11.9903L20.7939 14.5597L23.3779 11.9757L19.7363 11.9903Z" fill="#9BA3B3"/>
</svg>
