<svg width="38" height="38" viewBox="0 0 38 38" fill="none" xmlns="http://www.w3.org/2000/svg">
<path d="M26.5939 4.75879C30.0077 4.93198 32.7225 7.75991 32.7228 11.2236L32.714 11.5576C32.5407 14.9781 29.7184 17.6982 26.2618 17.6982L25.9298 17.6895C25.6711 17.6763 25.4168 17.6453 25.1671 17.6025C25.3057 18.9072 25.3906 20.1084 25.5724 21.4609C25.7355 22.6747 25.9874 23.5136 26.3995 24.2139C26.8092 24.9098 27.4471 25.586 28.5577 26.3574C29.4292 26.963 29.6099 27.9733 29.3985 28.7285C29.1838 29.4951 28.4717 30.2979 27.3526 30.2979H22.0831C21.9938 30.6017 21.8375 30.8812 21.6632 31.1201C21.3846 31.502 21.0064 31.86 20.5802 32.166C19.7367 32.7715 18.5938 33.251 17.4308 33.251C16.2539 33.2508 15.2007 32.7609 14.4474 32.1299C13.881 31.6553 13.3878 31.013 13.2042 30.334L13.2013 30.3379C13.1977 30.3254 13.1932 30.3122 13.1896 30.2979H7.40343C7.12951 30.2978 6.8802 30.249 6.65635 30.165V30.166C6.65239 30.1645 6.64859 30.1626 6.64464 30.1611C6.63904 30.159 6.6336 30.1565 6.62803 30.1543C6.58154 30.1361 6.53643 30.116 6.49229 30.0947C6.47979 30.0887 6.4675 30.0824 6.45518 30.0762C6.43695 30.0669 6.41836 30.0585 6.4005 30.0488L6.40147 30.0469C5.98542 29.8204 5.67959 29.4658 5.49522 29.0859L5.49229 29.0898C5.44966 29.0024 5.41545 28.913 5.38585 28.8242L5.38682 28.8223C5.37642 28.7909 5.36628 28.7598 5.35753 28.7285C5.14627 27.9733 5.32774 26.963 6.19932 26.3574L6.59385 26.0723C7.46542 25.4166 7.99802 24.8228 8.35655 24.2139C8.44366 24.0659 8.52137 23.9106 8.59483 23.748L8.58604 23.7578C8.67215 23.5685 8.74897 23.368 8.81846 23.1523L8.8253 23.1445C8.9778 22.6685 9.09505 22.1205 9.1837 21.4609C9.21172 21.2524 9.23402 21.047 9.25792 20.8447L9.25694 20.8467C9.27361 20.7055 9.2887 20.5656 9.30382 20.4268L9.3087 20.4209C9.38513 19.7191 9.44792 19.0425 9.51475 18.3496L9.50889 18.3564C9.52214 18.2188 9.53684 18.0806 9.55089 17.9414L9.55577 17.9355C9.57257 17.7692 9.58703 17.6012 9.60557 17.4316C9.66489 16.8891 9.73456 16.341 9.82628 15.7979L9.82139 15.8037C9.84712 15.6512 9.87481 15.4991 9.9044 15.3477L9.90928 15.3418C10.0264 14.7427 10.1753 14.1535 10.3751 13.5889C10.496 13.2473 10.6364 12.9119 10.7999 12.5859L10.7911 12.5957C10.9477 12.2824 11.126 11.9778 11.3292 11.6846L11.3468 11.666C11.7028 11.1559 12.1345 10.6802 12.6622 10.2549C12.7861 10.155 12.9142 10.0591 13.046 9.9668L13.0646 9.94922C13.3505 9.75074 13.6558 9.57105 13.9796 9.40723L13.9737 9.41211C14.7357 9.02559 15.6042 8.7343 16.586 8.53125V7.31836C16.586 6.88133 16.9411 6.52668 17.378 6.52637C17.8153 6.52637 18.17 6.88113 18.17 7.31836V8.53125C18.3887 8.57646 18.6012 8.62844 18.8087 8.68262L18.8107 8.68164C18.9093 8.70741 19.0065 8.7349 19.1026 8.7627H19.1017C19.4688 8.86885 19.8183 8.98804 20.1495 9.12402C20.1444 9.13891 20.1399 9.15401 20.1349 9.16895C20.9923 6.60113 23.4107 4.75005 26.2618 4.75L26.5939 4.75879ZM14.9103 30.2979C15.0297 30.486 15.208 30.7015 15.464 30.916C15.9878 31.3548 16.6921 31.6678 17.4308 31.668C18.1835 31.668 19.0106 31.3441 19.6573 30.8799C19.9225 30.6895 20.1367 30.4867 20.2941 30.2979H14.9103ZM26.0206 28.7148H27.3526C27.8609 28.7148 28.0721 28.0577 27.7296 27.7207L27.6544 27.6572C27.5385 27.5767 27.4272 27.4952 27.3185 27.415L26.0206 28.7148ZM23.7823 28.7148H25.6476L27.1066 27.2549C26.7318 26.9668 26.4014 26.6795 26.1095 26.3867L23.7823 28.7148ZM21.5411 28.7148H23.4083L25.9259 26.1963C25.6082 25.8558 25.3403 25.5073 25.1134 25.1416L21.5411 28.7148ZM19.3028 28.7148H21.1681L24.9747 24.9072C24.7445 24.4981 24.5626 24.0665 24.4151 23.6016L19.3028 28.7148ZM17.0646 28.7148H18.9298L24.3282 23.3154C24.2268 22.9515 24.1433 22.5673 24.0753 22.1572L24.0157 21.7627L17.0646 28.7148ZM14.8243 28.7148H16.6896L23.9718 21.4316C23.8989 20.8618 23.8413 20.3005 23.7872 19.751L14.8243 28.7148ZM12.587 28.7148H14.4523L23.753 19.4121C23.6973 18.8321 23.6412 18.2664 23.5821 17.7178L12.587 28.7148ZM10.3468 28.7148H12.214L23.545 17.3818C23.5335 17.2817 23.525 17.1818 23.5128 17.083C23.1721 16.9222 22.8471 16.7331 22.5421 16.5176L10.3468 28.7148ZM8.10753 28.7148H9.97374L22.3282 16.3584C21.9788 16.0893 21.657 15.7859 21.3692 15.4521L8.10753 28.7148ZM9.90245 24.6787C9.34465 25.7716 8.48193 26.6992 7.10264 27.6572C6.68568 27.9472 6.83866 28.6225 7.30577 28.7061L7.40343 28.7148H7.73448L21.2013 15.2471C20.9216 14.8945 20.6779 14.5122 20.4757 14.1055L9.90245 24.6787ZM10.7638 21.5791C10.7597 21.6099 10.7572 21.641 10.753 21.6719L10.6808 22.1572C10.5679 22.8379 10.4134 23.4473 10.1993 24.0098L20.3566 13.8516C20.157 13.4022 20.0066 12.9261 19.9132 12.4297L10.7638 21.5791ZM11.0353 19.0674C10.9715 19.7451 10.9015 20.4427 10.8155 21.1553L19.8614 12.1094C19.8219 11.8198 19.8009 11.5241 19.8009 11.2236C19.8009 11.0401 19.8103 10.8584 19.8253 10.6787C19.8245 10.6885 19.8231 10.6982 19.8224 10.708C19.7255 10.6635 19.6258 10.6207 19.5235 10.5791L11.0353 19.0674ZM11.3107 16.5537C11.2143 17.2232 11.1446 17.926 11.0753 18.6543L19.254 10.4756C18.8157 10.3152 18.3311 10.1789 17.7941 10.0703L11.3107 16.5537ZM26.2618 6.33301C23.5712 6.33308 21.3841 8.51977 21.3839 11.2236C21.3839 13.9277 23.5711 16.1142 26.2618 16.1143C28.9526 16.1142 31.1398 13.9277 31.1398 11.2236C31.1395 8.51974 28.9524 6.33303 26.2618 6.33301ZM17.378 9.99316C13.0773 10.7168 11.8905 13.0258 11.378 16.1133L17.4796 10.0117C17.4459 10.0058 17.4121 9.99889 17.378 9.99316ZM27.8517 8.50684C28.1604 8.19767 28.6614 8.19743 28.9708 8.50586C29.2803 8.81468 29.2816 9.31647 28.9728 9.62598L27.3771 11.2236L28.9728 12.8232C29.2814 13.1327 29.2802 13.6336 28.9708 13.9424C28.6613 14.2511 28.1605 14.2509 27.8517 13.9414L26.2589 12.3447L24.6661 13.9414C24.3573 14.2509 23.8555 14.2512 23.546 13.9424C23.237 13.6336 23.2365 13.1326 23.545 12.8232L25.1398 11.2236L23.545 9.62598C23.2363 9.31653 23.2367 8.81468 23.546 8.50586C23.8554 8.1971 24.3573 8.19752 24.6661 8.50684L26.2589 10.1025L27.8517 8.50684Z" fill="#9CA3B3"/>
</svg>
