<svg width="16" height="16" viewBox="0 0 16 16" fill="none" xmlns="http://www.w3.org/2000/svg">
<path d="M6.33398 3.33301C6.70202 3.33318 7.00098 3.63192 7.00098 4C7.0008 4.36793 6.70192 4.66682 6.33398 4.66699H5.33398C4.96605 4.66717 4.66814 4.96508 4.66797 5.33301V10.667C4.66832 11.0348 4.96616 11.3328 5.33398 11.333H10.668C11.0356 11.3327 11.3336 11.0347 11.334 10.667V9.66699C11.334 9.2988 11.6328 9 12.001 9C12.369 9.00018 12.668 9.29891 12.668 9.66699V10.667C12.6676 11.771 11.772 12.6666 10.668 12.667H5.33398C4.22978 12.6668 3.33434 11.7712 3.33398 10.667V5.33301C3.33416 4.2287 4.22967 3.33318 5.33398 3.33301H6.33398ZM12.001 3.33301C12.369 3.33318 12.667 3.63192 12.667 4V7.33301C12.6668 7.70094 12.3689 7.99982 12.001 8C11.6329 8 11.3342 7.70105 11.334 7.33301V5.60938L7.80566 9.1377C7.54536 9.39783 7.12261 9.39783 6.8623 9.1377C6.60239 8.87743 6.60239 8.45558 6.8623 8.19531L10.3906 4.66699H8.66699C8.29906 4.66682 8.00115 4.36793 8.00098 4C8.00098 3.63192 8.29895 3.33318 8.66699 3.33301H12.001Z" fill="#9BA3B3"/>
</svg>
