<svg width="24" height="24" viewBox="0 0 24 24" fill="none" xmlns="http://www.w3.org/2000/svg">
<path d="M12 3C16.9706 3 21 7.02944 21 12C21 16.9706 16.9706 21 12 21C7.02944 21 3 16.9706 3 12C3 7.02944 7.02944 3 12 3ZM12 4.5C7.85786 4.5 4.5 7.85786 4.5 12C4.5 16.1421 7.85786 19.5 12 19.5C16.1421 19.5 19.5 16.1421 19.5 12C19.5 7.85786 16.1421 4.5 12 4.5ZM10 8C10.5523 8 11 8.44772 11 9V15C11 15.5523 10.5523 16 10 16C9.44772 16 9 15.5523 9 15V9C9 8.44772 9.44772 8 10 8ZM14 8C14.5523 8 15 8.44772 15 9V15C15 15.5523 14.5523 16 14 16C13.4477 16 13 15.5523 13 15V9C13 8.44772 13.4477 8 14 8Z" fill="#9BA3B3"/>
</svg>
