<svg width="24" height="24" viewBox="0 0 24 24" fill="none" xmlns="http://www.w3.org/2000/svg">
<path d="M17.6963 4C19.1383 4 20.4665 4.30385 21.7188 4.87305C22.4017 5.17664 22.8574 5.8975 22.8574 6.69434V17.4326C22.8574 18.5331 21.9844 19.4443 20.9219 19.4443C20.6942 19.4443 20.504 19.406 20.2764 19.3301C19.4796 19.0266 18.6448 18.9131 17.6963 18.9131C15.8749 18.9131 14.0915 19.4063 12.1562 19.9375C10.1831 20.4687 8.17206 21 6.12305 21C4.68111 21 3.3528 20.7342 2.10059 20.165C1.41755 19.8615 1 19.1406 1 18.3438V7.60449C1.00021 6.50423 1.8351 5.59375 2.89746 5.59375C3.12499 5.59377 3.31447 5.63219 3.54199 5.70801C4.33887 6.01158 5.21233 6.125 6.12305 6.125C7.94438 6.12495 9.76586 5.63181 11.6631 5.10059C13.6362 4.56936 15.6473 4.00003 17.6963 4ZM17.6963 5.82129C15.8749 5.82132 14.0914 6.35242 12.1562 6.8457C10.1831 7.41487 8.17206 7.94624 6.12305 7.94629C5.78165 7.94629 5.44003 7.90805 5.09863 7.87012C4.79506 8.85672 3.88379 9.57812 2.82129 9.57812V16.4844C3.99763 16.6362 4.94629 17.6607 4.94629 18.875C4.94629 18.9508 4.90825 19.0267 4.9082 19.1025C5.28767 19.1405 5.70564 19.1787 6.12305 19.1787C7.94438 19.1787 9.76586 18.6857 11.6631 18.1924C13.6362 17.6232 15.6472 17.0918 17.6963 17.0918C18.1515 17.0918 18.569 17.1291 18.9863 17.167C19.29 16.2944 20.0496 15.6871 21.0361 15.5732V8.55371C19.8218 8.40193 18.9111 7.37723 18.9111 6.125V5.93555C18.5317 5.8976 18.1137 5.82129 17.6963 5.82129ZM11.9287 8.85742C13.5983 8.85751 14.9639 10.4889 14.9639 12.5C14.9639 14.5491 13.5983 16.1425 11.9287 16.1426C10.2211 16.1426 8.89258 14.5491 8.89258 12.5C8.89258 10.4888 10.2211 8.85742 11.9287 8.85742Z" fill="white"/>
</svg>
