<svg width="24" height="24" viewBox="0 0 24 24" fill="none" xmlns="http://www.w3.org/2000/svg">
<path d="M7.5 3C8.05 3 8.5 3.45 8.5 4C8.5 5.25 8.70031 6.45031 9.07031 7.57031C9.18011 7.92012 9.10002 8.30996 8.82031 8.58984L6.62012 10.79C8.06011 13.62 10.38 15.9299 13.21 17.3799L15.4102 15.1797C15.6801 14.9099 16.0798 14.8205 16.4297 14.9404C17.5497 15.3104 18.76 15.5098 20 15.5098C20.5499 15.5098 20.9999 15.9599 21 16.5098V20C21 20.55 20.55 21 20 21C10.61 21 3 13.39 3 4C3 3.45 3.45 3 4 3H7.5Z" fill="white"/>
</svg>
