<svg width="24" height="24" viewBox="0 0 24 24" fill="none" xmlns="http://www.w3.org/2000/svg">
<path d="M21 17.5C21.5523 17.5 22 17.9477 22 18.5V20C22 21.6569 20.6569 23 19 23H5C3.34315 23 2 21.6569 2 20V18.5C2 17.9477 2.44772 17.5 3 17.5C3.55228 17.5 4 17.9477 4 18.5V20C4 20.5523 4.44772 21 5 21H19C19.5523 21 20 20.5523 20 20V18.5C20 17.9477 20.4477 17.5 21 17.5ZM12 1C16.9706 1 21 5.02944 21 10C21 14.9706 16.9706 19 12 19C7.02944 19 3 14.9706 3 10C3 5.02944 7.02944 1 12 1ZM12 2.89453C8.07587 2.89453 4.89453 6.07587 4.89453 10C4.89453 13.9241 8.07587 17.1055 12 17.1055C15.9241 17.1055 19.1055 13.9241 19.1055 10C19.1055 6.07587 15.9241 2.89453 12 2.89453ZM12.4268 4.31543C12.6622 4.31545 12.8525 4.51141 12.8525 4.75293V5.64355C13.4538 5.67525 14.0388 5.89052 14.5234 6.26367C14.7312 6.42381 14.7427 6.74354 14.5547 6.92773L13.9287 7.54004C13.7812 7.68432 13.5613 7.69099 13.3887 7.58008C13.1831 7.4473 12.9489 7.37699 12.7061 7.37695H11.208C10.862 7.37725 10.5801 7.70049 10.5801 8.09766C10.5802 8.42267 10.7722 8.70818 11.0469 8.79297L13.4443 9.53125C14.4351 9.83621 15.1269 10.811 15.127 11.9023C15.127 13.2431 14.1122 14.3318 12.8535 14.3662V15.2471C12.8535 15.4886 12.6631 15.6846 12.4277 15.6846H11.5752C11.3399 15.6844 11.1495 15.4885 11.1494 15.2471V14.3564C10.5481 14.3247 9.96323 14.1096 9.47852 13.7363C9.27077 13.5762 9.26021 13.2565 9.44824 13.0723L10.0742 12.46C10.2217 12.316 10.4408 12.3092 10.6133 12.4199C10.8188 12.5526 11.0532 12.623 11.2959 12.623H12.793C13.1392 12.623 13.4219 12.2997 13.4219 11.9023C13.4218 11.5774 13.2296 11.2919 12.9551 11.207L10.5566 10.4688C9.56666 10.1637 8.8751 9.1889 8.875 8.09766C8.875 6.75749 9.88971 5.66822 11.1484 5.63379V4.75293C11.1485 4.51147 11.3389 4.31555 11.5742 4.31543H12.4268Z" fill="white"/>
</svg>
