<svg preserveAspectRatio="none" width="100%" height="100%" overflow="visible" style="display: block;" viewBox="0 0 14.9965 16.1579" fill="none" xmlns="http://www.w3.org/2000/svg">
<path id="Icon" d="M7.49747 4.01237C7.74586 4.01244 7.94667 4.22114 7.94669 4.47917V5.43034C8.58133 5.46421 9.19883 5.6946 9.71037 6.09343C9.92953 6.26454 9.941 6.60565 9.74259 6.80241L9.08244 7.45671C8.92673 7.61087 8.69425 7.61821 8.51212 7.49968C8.29517 7.35784 8.0477 7.2819 7.79142 7.2819H6.21134C5.84616 7.28217 5.54826 7.62806 5.54826 8.05241C5.5483 8.39978 5.75142 8.70506 6.04142 8.79558L8.57169 9.58366C9.61723 9.90951 10.3471 10.9517 10.3471 12.1178C10.347 13.5499 9.27666 14.7126 7.94865 14.7497V15.6911C7.94844 15.949 7.74678 16.1579 7.49845 16.1579H6.59904C6.35073 16.1579 6.15003 15.949 6.14982 15.6911V14.7399C5.51525 14.706 4.89765 14.4756 4.38615 14.0768C4.16693 13.9057 4.15552 13.5646 4.35392 13.3678L5.01408 12.7135C5.16969 12.5595 5.40134 12.5523 5.58341 12.6706C5.80028 12.8124 6.04793 12.8873 6.30412 12.8874H7.88419C8.24946 12.8873 8.54717 12.5422 8.54728 12.1178C8.54728 11.7704 8.34417 11.4652 8.05412 11.3747L5.52384 10.5856C4.47916 10.2596 3.74948 9.21828 3.74943 8.05241C3.74943 6.62075 4.81975 5.45758 6.14787 5.42058V4.47917C6.14789 4.22109 6.34962 4.01237 6.59806 4.01237H7.49747ZM0.0638811 4.80632C2.22013 -0.942959 9.73679 -1.53416 12.9965 3.0319V2.1569C12.9966 1.60471 13.4443 1.1569 13.9965 1.1569C14.5486 1.15708 14.9964 1.60481 14.9965 2.1569V5.1569C14.9965 5.70908 14.5486 6.15673 13.9965 6.1569H11.0004C10.4481 6.1569 10.0004 5.70919 10.0004 5.1569C10.0005 4.60471 10.4482 4.1569 11.0004 4.1569H11.3363C8.9353 0.885302 3.50193 1.33609 1.93693 5.50944C1.74288 6.02612 1.16571 6.28799 0.648842 6.0944C0.131986 5.90038 -0.129888 5.32329 0.0638811 4.80632Z" fill="var(--fill-0, #9BA3B3)"/>
</svg>
