<svg width="48" height="48" viewBox="0 0 48 48" fill="none" xmlns="http://www.w3.org/2000/svg">
<path d="M24 0C37.2548 0 48 10.7452 48 24C48 37.2548 37.2548 48 24 48C10.7452 48 0 37.2548 0 24C0 10.7452 10.7452 0 24 0ZM24 5C13.5066 5 5 13.5066 5 24C5 34.4934 13.5066 43 24 43C34.4934 43 43 34.4934 43 24C43 13.5066 34.4934 5 24 5ZM30.2588 16.3457C31.1722 15.3112 32.752 15.2121 33.7871 16.125C34.8221 17.0385 34.921 18.6191 34.0078 19.6543L23.4189 31.6543C22.9625 32.1713 22.3123 32.4773 21.623 32.499C20.9336 32.5204 20.2652 32.2553 19.7773 31.7676L14.8359 26.8262C13.8601 25.8499 13.8599 24.2672 14.8359 23.291C15.8121 22.3152 17.3949 22.3153 18.3711 23.291L21.4297 26.3496L30.2588 16.3457Z" fill="#19B269"/>
</svg>
