<svg width="24" height="24" viewBox="0 0 24 24" fill="none" xmlns="http://www.w3.org/2000/svg">
<path d="M13.8096 1.04688C14.3355 1.0469 14.7616 1.47316 14.7617 1.99902C14.7617 2.52499 14.3355 2.95115 13.8096 2.95117H12.9521V4.0498C14.6517 4.22852 16.2085 4.88235 17.4922 5.87305L18.3438 5.02246L17.9463 4.625C17.5744 4.25307 17.5744 3.65025 17.9463 3.27832C18.3182 2.90655 18.9201 2.90655 19.292 3.27832L21.1973 5.18262C21.569 5.55456 21.5691 6.1584 21.1973 6.53027C20.8254 6.90177 20.2224 6.90092 19.8506 6.5293L19.6904 6.36914L18.8701 7.18848C20.1979 8.75661 21 10.7843 21 13C20.9999 17.9704 16.9705 22 12 22C7.02952 22 3.00014 17.9704 3 13C3 8.35105 6.5249 4.52541 11.0479 4.0498V2.95117H10C9.47401 2.95117 9.04785 2.52501 9.04785 1.99902C9.04798 1.47314 9.47409 1.04688 10 1.04688H13.8096ZM12 5.9043C8.08141 5.9043 4.9043 9.08141 4.9043 13C4.90444 16.9185 8.08149 20.0957 12 20.0957C15.9185 20.0957 19.0956 16.9185 19.0957 13C19.0957 9.08141 15.9186 5.9043 12 5.9043ZM12 8.04785C12.526 8.04785 12.9521 8.47401 12.9521 9V13.0479H14.8574C15.3833 13.048 15.8096 13.4741 15.8096 14C15.8094 14.5258 15.3832 14.952 14.8574 14.9521H12C11.7475 14.9521 11.5048 14.8524 11.3262 14.6738C11.1476 14.4953 11.0479 14.2525 11.0479 14V9C11.0479 8.47401 11.474 8.04785 12 8.04785Z" fill="#E72626"/>
</svg>
