<svg width="48" height="48" viewBox="0 0 48 48" fill="none" xmlns="http://www.w3.org/2000/svg">
<path d="M44.5394 37.6562L26.9928 6.78125C26.3368 5.59375 25.1889 5 23.959 5C22.8111 5 21.6632 5.59375 20.9252 6.78125L3.46058 37.6562C2.14868 40.0312 3.78855 43 6.49434 43H41.5057C44.2114 43 45.8513 40.0312 44.5394 37.6562ZM7.31428 38.9286L23.959 9.49554L40.6857 38.9286H7.31428ZM24.041 30.9554C22.5651 30.9554 21.4172 32.1429 21.4172 33.5848C21.4172 35.0268 22.5651 36.2143 24.041 36.2143C25.4349 36.2143 26.5828 35.0268 26.5828 33.5848C26.5828 32.1429 25.4349 30.9554 24.041 30.9554ZM22.0731 17.8929V26.0357C22.0731 27.2232 22.8931 28.0714 24.041 28.0714C25.1069 28.0714 26.0088 27.2232 26.0088 26.0357V17.8929C26.0088 16.7902 25.1069 15.8571 24.041 15.8571C22.8931 15.8571 22.0731 16.7902 22.0731 17.8929Z" fill="#F9C134"/>
</svg>
